<?xml version="1.0" encoding="UTF-8"?>
<svg xmlns="http://www.w3.org/2000/svg" xmlns:xlink="http://www.w3.org/1999/xlink" width="10px" height="10px" viewBox="0 0 10 10" version="1.1">
<g id="surface1">
<path style=" stroke:none;fill-rule:nonzero;fill:#c4c4c4;" d="M 0.183594 4.558594 L 2.683594 2.058594 C 2.925781 1.8125 3.324219 1.8125 3.566406 2.058594 C 3.8125 2.304688 3.8125 2.699219 3.566406 2.941406 L 2.132812 4.375 L 9.375 4.375 C 9.71875 4.375 10 4.65625 10 5 C 10 5.34375 9.71875 5.625 9.375 5.625 L 2.132812 5.625 L 3.566406 7.058594 C 3.8125 7.300781 3.8125 7.699219 3.566406 7.941406 C 3.324219 8.1875 2.929688 8.1875 2.683594 7.941406 L 0.183594 5.441406 C -0.0625 5.195312 -0.0625 4.804688 0.183594 4.558594 Z M 0.183594 4.558594 "/>
</g>
</svg>
