<?xml version="1.0" encoding="UTF-8"?>
<svg xmlns="http://www.w3.org/2000/svg" xmlns:xlink="http://www.w3.org/1999/xlink" width="10px" height="10px" viewBox="0 0 10 10" version="1.1">
<g id="surface1">
<path style=" stroke:none;fill-rule:nonzero;fill:#f88500;" d="M 9.816406 5.441406 L 7.316406 7.941406 C 7.070312 8.1875 6.675781 8.183594 6.433594 7.941406 C 6.1875 7.695312 6.1875 7.300781 6.433594 7.058594 L 7.867188 5.625 L 0.625 5.625 C 0.28125 5.625 0 5.34375 0 4.984375 C 0 4.617188 0.28125 4.375 0.625 4.375 L 7.867188 4.375 L 6.433594 2.941406 C 6.191406 2.699219 6.191406 2.300781 6.433594 2.058594 C 6.679688 1.8125 7.074219 1.8125 7.316406 2.058594 L 9.816406 4.558594 C 10.0625 4.804688 10.0625 5.195312 9.816406 5.441406 Z M 9.816406 5.441406 "/>
</g>
</svg>
