<svg width="58" height="49" viewBox="0 0 58 49" fill="none" xmlns="http://www.w3.org/2000/svg">
<path d="M45.3262 33.3076C43.8086 33.654 41.9591 33.6859 40.2937 33.3944L39.7427 33.2979L40.6408 31.8083C42.2682 29.1088 43.3077 27.0763 44.4198 24.4193C45.519 21.7926 46.2683 19.4538 46.8227 16.9188C47.1282 15.5223 47.5133 13.248 47.4389 13.28C47.4213 13.2876 47.2828 13.7922 47.1311 14.4014C45.529 20.8342 42.27 27.5075 38.675 31.717C38.274 32.1864 37.9205 32.5516 37.8893 32.5285C37.5547 32.2801 36.3477 30.6632 35.7503 29.6631C35.1393 28.6403 34.4454 26.8654 34.2875 25.9214C33.9841 24.1084 34.2052 22.6288 35.0272 20.9708C36.0194 18.9696 37.5871 17.1679 40.3933 14.8039C43.687 12.0293 44.685 11.0342 45.7502 9.46323C46.5053 8.34943 47.1492 6.83206 47.4036 5.56695C47.4812 5.18097 47.5627 4.85619 47.5847 4.84518C47.6538 4.81076 48.406 6.03337 48.8468 6.89633C49.5001 8.17541 50.0445 9.50161 50.4865 10.891C53.0607 18.9829 52.7533 26.7185 49.7067 30.5165C49.1633 31.194 48.5191 31.7923 47.8997 32.195C47.2571 32.6128 46.013 33.1507 45.3267 33.3073L45.3262 33.3076ZM28.8495 40.2888C25.9275 41.251 23.2045 41.2887 20.5853 40.4029C17.7594 39.4477 14.831 37.0821 12.9868 34.2646C12.1674 33.0128 11.6727 32.0117 10.4929 29.2176C9.88136 27.7693 9.24998 26.3687 9.03483 25.983C7.34051 22.9457 5.14413 21.4897 1.10178 20.7245L0.49771 20.6101L0.834763 20.324C1.3509 19.8858 2.49509 19.1002 3.22549 18.6825C4.33392 18.0486 7.1625 16.9303 8.64817 16.5386C14.0741 15.1081 20.1918 14.9908 25.4494 16.2166C28.4245 16.9101 31.2859 18.1483 33.1931 19.567L33.6692 19.9213L33.1689 21.0823C32.6225 22.3506 32.446 22.997 32.3753 23.9891C32.2207 26.1585 33.0979 28.5034 34.8877 30.7054C35.1561 31.0356 35.37 31.3192 35.3629 31.3356C35.3559 31.3519 35.1804 31.2198 34.9729 31.0419C30.8032 27.4673 26.4029 25.0349 21.6543 23.6797C20.4431 23.3341 17.8416 22.7784 17.7068 22.8365C17.6887 22.8443 18.317 23.1239 19.1029 23.4579C22.9049 25.0735 26.0946 26.8864 28.9374 29.0467C29.9646 29.8273 31.7671 31.4583 32.5658 32.3295C33.695 33.5613 34.831 35.155 35.185 36.0039L35.3616 36.4273L34.838 36.8716C33.2393 38.2282 30.6912 39.6821 28.8499 40.2883L28.8495 40.2888ZM35.5002 31.5254C35.4614 31.4966 35.4385 31.4526 35.4492 31.4277C35.4599 31.4027 35.5038 31.4211 35.5467 31.4684C35.6359 31.5666 35.6057 31.6036 35.5002 31.5254Z" fill="#F88500"/>
</svg>
