<svg width="18" height="17" viewBox="0 0 18 17" xmlns="http://www.w3.org/2000/svg">
<path d="M9.00179 4.43058C6.73036 4.43058 4.89822 6.24746 4.89822 8.49996C4.89822 10.7525 6.73036 12.5693 9.00179 12.5693C11.2732 12.5693 13.1054 10.7525 13.1054 8.49996C13.1054 6.24746 11.2732 4.43058 9.00179 4.43058ZM9.00179 11.1456C7.53394 11.1456 6.33394 9.95912 6.33394 8.49996C6.33394 7.04079 7.53036 5.85433 9.00179 5.85433C10.4732 5.85433 11.6697 7.04079 11.6697 8.49996C11.6697 9.95912 10.4697 11.1456 9.00179 11.1456ZM14.2304 4.26412C14.2304 4.79183 13.8018 5.21329 13.2732 5.21329C12.7411 5.21329 12.3161 4.78829 12.3161 4.26412C12.3161 3.73995 12.7447 3.31495 13.2732 3.31495C13.8018 3.31495 14.2304 3.73995 14.2304 4.26412ZM16.9482 5.22746C16.8875 3.956 16.5946 2.82975 15.6554 1.90183C14.7197 0.973913 13.5839 0.683496 12.3018 0.619746C10.9804 0.545371 7.01965 0.545371 5.69822 0.619746C4.41965 0.679954 3.28394 0.970371 2.34465 1.89829C1.40537 2.8262 1.11608 3.95245 1.05179 5.22391C0.976794 6.53433 0.976794 10.462 1.05179 11.7725C1.11251 13.0439 1.40537 14.1702 2.34465 15.0981C3.28394 16.026 4.41608 16.3164 5.69822 16.3802C7.01965 16.4545 10.9804 16.4545 12.3018 16.3802C13.5839 16.32 14.7197 16.0295 15.6554 15.0981C16.5911 14.1702 16.8839 13.0439 16.9482 11.7725C17.0232 10.462 17.0232 6.53787 16.9482 5.22746ZM15.2411 13.1785C14.9625 13.8727 14.4232 14.4075 13.7197 14.6872C12.6661 15.1016 10.1661 15.006 9.00179 15.006C7.83751 15.006 5.33394 15.0981 4.28394 14.6872C3.58394 14.411 3.04465 13.8762 2.76251 13.1785C2.34465 12.1337 2.44108 9.65454 2.44108 8.49996C2.44108 7.34537 2.34822 4.86266 2.76251 3.82141C3.04108 3.12725 3.58037 2.59245 4.28394 2.31266C5.33751 1.89829 7.83751 1.99391 9.00179 1.99391C10.1661 1.99391 12.6697 1.90183 13.7197 2.31266C14.4197 2.58891 14.9589 3.1237 15.2411 3.82141C15.6589 4.8662 15.5625 7.34537 15.5625 8.49996C15.5625 9.65454 15.6589 12.1372 15.2411 13.1785Z"/>
</svg>
