<svg width="9" height="15" fill="none" xmlns="http://www.w3.org/2000/svg"><g clip-path="url(#clip0_3_61)" fill="#818B9D"><path d="M7.146 14.178L.707 7.89a.547.547 0 010-.787.578.578 0 01.805 0l6.439 6.29a.546.546 0 010 .785.578.578 0 01-.805 0z"/><path d="M7.951 1.606l-6.439 6.29a.578.578 0 01-.928-.18.547.547 0 01.123-.607l6.44-6.29a.578.578 0 01.927.182.547.547 0 01-.123.605z"/></g><defs><clipPath id="clip0_3_61"><path fill="#fff" transform="translate(.318 .344)" d="M0 0h8.026v14.312H0z"/></clipPath></defs></svg>