<svg width="69" height="31" fill="none" xmlns="http://www.w3.org/2000/svg"><path d="M26.993 30.921a4.241 4.241 0 01-3.186-4.062c-.013-.999.173-1.657.68-2.418 1.477-2.211 4.614-2.521 6.481-.64.883.888 1.133 1.548 1.134 2.996.002 1.111-.032 1.296-.339 1.883-.71 1.358-2.015 2.22-3.492 2.31-.45.026-1.025-.004-1.278-.069zm1.731-3.031c.642-.452.747-1.497.204-2.01-.946-.896-2.377-.225-2.223 1.04.118.962 1.256 1.509 2.02.97zm27.045 2.995c-1.267-.36-2.38-1.409-2.857-2.692-.302-.813-.227-2.418.15-3.191.446-.915 1.069-1.546 1.959-1.988.731-.362.929-.405 1.863-.405.934 0 1.132.043 1.862.405 1.504.744 2.325 2.084 2.321 3.783-.004 1.773-.917 3.175-2.536 3.896-.7.312-2.02.404-2.762.192zm2.001-3.154c.343-.308.4-.44.4-.934 0-.493-.057-.625-.4-.934-.3-.269-.522-.36-.885-.36-.364 0-.586.091-.885.36-.344.309-.4.441-.4.934 0 .494.056.626.4.934.299.27.521.36.885.36s.586-.09.885-.36zM15.4 23.596V21.44h-.434c-.977 0-1.404-1.25-.677-1.981l.358-.36h3.87c4.251 0 4.422-.026 4.71-.725.185-.453.074-1.022-.26-1.326-.234-.214-.623-.232-6.047-.29l-5.798-.062-.336-.338a1.158 1.158 0 010-1.663l.336-.34 9.86-.06 9.858-.062.296-.346a1.14 1.14 0 000-1.526l-.296-.346-15.12-.061L.6 11.89l-.258-.26c-.142-.14-.287-.475-.322-.742-.054-.403-.009-.554.264-.88l.328-.393 18.038-.032 18.038-.032.336-.339c.47-.472.47-1.19 0-1.663l-.337-.338-14.345-.062c-7.89-.034-14.42-.11-14.511-.17-.324-.21-.53-.927-.39-1.355.28-.855-.213-.816 10.266-.816 6.52 0 9.52-.041 9.72-.133.742-.34.884-1.454.25-1.956-.31-.245-.46-.251-6.301-.251-6.373 0-6.64-.023-6.945-.598-.23-.432-.157-1.085.163-1.459l.295-.346L30.87.032 46.85 0v21.931h1.47V5.423h10.628l.249.318c.218.28 2.234 2.41 6.808 7.197.745.78 1.723 1.805 2.173 2.28l.82.861.002 4.836v4.835h-6.547l-.21-.718c-.294-1.007-1.072-2.123-1.939-2.779-2.29-1.733-5.367-1.516-7.39.52-.705.711-1.347 1.816-1.485 2.56l-.078.417H33.538l-.077-.417c-.244-1.31-1.67-3.038-3.05-3.694-3.122-1.488-6.858.204-7.855 3.557l-.146.493-3.505.032-3.505.033v-2.158zM62.25 11.86c-2.24-2.354-4.13-4.322-4.2-4.371-.068-.05-1.736-.092-3.704-.093l-3.58-.002v8.747h15.558l-4.074-4.28z" fill="#F88500"/></svg>