<svg width="42" height="42" fill="none" xmlns="http://www.w3.org/2000/svg"><path d="M.215 41.785L0 41.57V19.306l.215-.215a.698.698 0 01.503-.215c.265 0 1.14.852 11.335 11.059C22.248 40.14 23.1 41.015 23.1 41.282a.7.7 0 01-.215.503L22.67 42H.43l-.215-.215zm20.435-1.208c0-.013-4.331-4.358-9.625-9.657L1.4 21.285v19.314h9.625c5.294 0 9.625-.01 9.625-.022zM4.415 37.58l-.215-.215v-7.548l.215-.215a.698.698 0 01.502-.215c.261 0 .615.328 3.985 3.702 3.37 3.373 3.698 3.727 3.698 3.99a.7.7 0 01-.215.502l-.214.215H4.63l-.215-.215zm5.735-1.21c0-.012-1.024-1.046-2.275-2.298L5.6 31.797v4.597h2.275c1.251 0 2.275-.01 2.275-.022zm11.55.727v-.704h5.753c3.926 0 5.864-.032 6.103-.098.47-.13 1.217-.876 1.346-1.347.054-.193.097-.577.097-.854L35 33.59H18.63l-.215-.215-.215-.215v-6.147l.215-.215.215-.215H35V12.177l-1.4 1.4-1.4 1.399v9.777l-.215.215-.215.215H15.83l-.215-.215c-.212-.213-.215-.235-.215-1.796v-1.58h-.296c-.445 0-1.767-.407-2.46-.756-2.018-1.018-3.45-2.835-4.032-5.114-.263-1.028-.223-2.771.086-3.803.421-1.402 1.02-2.427 1.974-3.38 1.016-1.015 2.26-1.706 3.734-2.074.892-.222 2.657-.198 3.575.048 2.161.582 3.985 2.045 4.955 3.976l.341.679h5.118l3.302-3.307L35 4.554v-.7c0-.386-.044-.858-.098-1.051-.13-.471-.875-1.218-1.346-1.348-.494-.136-24.618-.136-25.112 0-.47.13-1.217.877-1.346 1.348C7.03 3.048 7 5.93 7 12.416v9.263H5.596l.024-9.53.024-9.53C6.154.937 7.042.296 8.269 0H33.73l.59.28c1.025.485 1.838 1.513 1.968 2.485.026.19.066.344.09.344.025 0 .358-.299.741-.665.897-.858 1.29-1.042 2.211-1.037.817.005 1.358.232 1.894.797.541.57.722 1.024.726 1.825.006 1.154-.03 1.204-2.973 4.162L36.4 10.78v15.803h5.171l.214.215.215.215v6.147l-.215.215-.214.215h-5.147l-.045.794c-.039.683-.089.882-.36 1.433-.383.773-.898 1.275-1.703 1.657l-.585.277-6.015.025-6.016.024v-.703zm18.9-7.01v-2.103h-1.4v1.402h-1.4v-1.4h-1.4v1.4H35v-1.4h-1.4v1.4h-1.4v-1.4h-1.4v1.4h-1.4v-1.4H28v1.4h-1.4v-1.4h-1.4v1.4h-1.4v-1.4h-1.4v1.4H21v-1.4h-1.4v4.204h21v-2.102zm-9.8-10.006v-3.7l-.865.864-.866.863-1.944.39c-1.07.215-2.038.367-2.153.339-.114-.029-.274-.155-.356-.28-.143-.219-.134-.306.236-2.21l.384-1.983.874-.898.873-.898H23.71l.056.942c.22 3.737-2.18 6.983-5.877 7.947-.282.073-.642.133-.8.133H16.8v2.19h14v-3.7zm-15.15-8.747c.194-.157.383-.167 3.138-.167 2.586 0 2.925-.016 2.88-.133-.135-.352-.794-1.197-1.311-1.681a6.446 6.446 0 00-2.405-1.412c-.588-.196-.817-.224-1.852-.224-1.049 0-1.26.027-1.881.236-1.739.583-2.976 1.653-3.77 3.258-.885 1.789-.876 3.677.026 5.559.341.712.51.942 1.196 1.623 1.016 1.011 2.04 1.563 3.298 1.778l.387.066.044-4.367.044-4.368.206-.168zm2.607 8.553c.868-.316 1.504-.736 2.262-1.494.8-.8 1.259-1.533 1.593-2.54.201-.608.233-.851.238-1.84.003-.626-.022-1.207-.057-1.291-.058-.142-.274-.154-2.778-.154H16.8v7.684l.451-.082a7.515 7.515 0 001.006-.283zm8.464-2.723c.224-.034.424-.09.445-.124.021-.034-.152-.25-.385-.48-.232-.23-.442-.384-.465-.343-.024.04-.07.232-.103.424a5.998 5.998 0 01-.109.517c-.036.122-.014.153.081.117.072-.028.313-.078.536-.111zm7.098-5.822l5.074-5.08-.897-.898-.896-.897-5.096 5.1-5.096 5.102.872.877c.48.482.893.876.919.876.025 0 2.329-2.286 5.12-5.08zm6.42-6.44c.496-.564.489-1.269-.018-1.776-.532-.532-1.337-.486-1.892.108l-.214.23.869.873c.478.48.895.874.927.874.032 0 .18-.139.329-.308zM8.4 3.46v-.7h1.4v1.4H8.4v-.7zm2.8 0v-.7h1.4v1.4h-1.4v-.7zm2.8 0v-.7h1.4v1.4H14v-.7z" fill="#F88500"/></svg>