<svg width="58" height="49" fill="none" xmlns="http://www.w3.org/2000/svg"><path d="M45.326 33.308c-1.517.346-3.367.378-5.032.086l-.551-.096.898-1.49c1.627-2.7 2.667-4.732 3.779-7.389 1.099-2.626 1.848-4.965 2.403-7.5.305-1.397.69-3.671.616-3.639-.018.008-.156.512-.308 1.121-1.602 6.433-4.861 13.107-8.456 17.316-.401.47-.755.835-.786.812-.334-.249-1.541-1.866-2.139-2.866-.61-1.023-1.305-2.798-1.462-3.742-.304-1.813-.083-3.292.74-4.95.991-2.001 2.56-3.803 5.365-6.167 3.294-2.775 4.292-3.77 5.357-5.34.755-1.115 1.4-2.632 1.654-3.897.077-.386.159-.71.18-.722.07-.034.822 1.188 1.263 2.051a26.23 26.23 0 011.64 3.995c2.574 8.092 2.266 15.827-.78 19.626-.544.677-1.188 1.275-1.807 1.678-.643.418-1.887.956-2.573 1.112zm-16.477 6.98c-2.922.963-5.645 1-8.264.115-2.826-.955-5.754-3.32-7.598-6.138-.82-1.252-1.314-2.253-2.494-5.047-.612-1.449-1.243-2.85-1.458-3.235-1.694-3.037-3.89-4.493-7.933-5.259l-.604-.114.337-.286c.516-.438 1.66-1.224 2.39-1.642 1.109-.633 3.937-1.752 5.423-2.143 5.426-1.43 11.544-1.548 16.801-.322 2.975.693 5.837 1.931 7.744 3.35l.476.354-.5 1.161c-.546 1.269-.723 1.915-.794 2.907-.154 2.17.723 4.514 2.513 6.716.268.33.482.614.475.63-.007.017-.183-.115-.39-.293-4.17-3.575-8.57-6.007-13.319-7.362-1.21-.346-3.812-.902-3.947-.843-.018.007.61.287 1.396.62 3.802 1.616 6.992 3.43 9.834 5.59 1.028.78 2.83 2.411 3.629 3.283 1.129 1.231 2.265 2.825 2.619 3.674l.177.423-.524.445c-1.599 1.356-4.147 2.81-5.988 3.416zm6.651-8.763c-.039-.028-.062-.072-.05-.097.01-.025.054-.007.097.04.089.099.059.136-.047.057z" fill="#F88500"/></svg>