<svg width="61" height="49" fill="none" xmlns="http://www.w3.org/2000/svg"><path d="M48.31 34.116c-1.583.33-3.517.34-5.261.026l-.578-.105.922-1.492c1.671-2.703 2.735-4.742 3.867-7.409 1.12-2.637 1.876-4.988 2.427-7.539.303-1.405.68-3.695.603-3.664-.019.008-.158.515-.31 1.128-1.6 6.471-4.932 13.165-8.643 17.368-.414.469-.78.833-.813.81-.352-.255-1.633-1.902-2.27-2.918-.65-1.04-1.396-2.84-1.572-3.794-.338-1.833-.124-3.323.717-4.986 1.014-2.007 2.633-3.806 5.54-6.157 3.413-2.759 4.445-3.75 5.54-5.323.778-1.114 1.434-2.638 1.685-3.911.077-.389.158-.715.181-.726.072-.034.873 1.209 1.343 2.085a26.61 26.61 0 011.761 4.051c2.785 8.197 2.552 15.999-.59 19.794-.56.677-1.227 1.272-1.87 1.671-.667.414-1.962.941-2.678 1.09v.001zm-17.15 6.842c-3.044.934-5.892.939-8.64.013-2.967-.999-6.056-3.422-8.017-6.287-.871-1.273-1.4-2.29-2.666-5.124-.656-1.469-1.332-2.89-1.562-3.281-1.807-3.086-4.12-4.582-8.356-5.404l-.633-.123.35-.285c.534-.435 1.721-1.214 2.48-1.627 1.152-.626 4.097-1.72 5.646-2.096 5.658-1.377 12.054-1.42 17.566-.118 3.12.736 6.126 2.02 8.137 3.476l.501.363-.51 1.166c-.556 1.273-.733 1.923-.796 2.923-.137 2.187.808 4.564 2.705 6.808.284.336.51.625.504.642-.008.016-.193-.12-.412-.302-4.401-3.658-9.03-6.166-14.012-7.592-1.27-.364-3.997-.957-4.137-.9-.02.008.64.298 1.467.644 3.994 1.677 7.35 3.546 10.348 5.76 1.083.801 2.987 2.47 3.832 3.358 1.195 1.257 2.401 2.879 2.781 3.74l.19.43-.543.441c-1.656 1.35-4.304 2.785-6.222 3.374zm6.854-8.761c-.04-.03-.065-.075-.054-.1.01-.025.057-.005.102.043.095.1.064.137-.048.057z" fill="#F88500"/></svg>