<svg width="18" height="17" xmlns="http://www.w3.org/2000/svg"><path d="M9.002 4.43c-2.272 0-4.104 1.817-4.104 4.07 0 2.252 1.832 4.07 4.104 4.07 2.271 0 4.103-1.818 4.103-4.07 0-2.253-1.832-4.07-4.103-4.07zm0 6.716c-1.468 0-2.668-1.187-2.668-2.646 0-1.46 1.196-2.646 2.668-2.646 1.471 0 2.668 1.187 2.668 2.646 0 1.46-1.2 2.646-2.668 2.646zm5.228-6.882c0 .528-.428.95-.957.95a.951.951 0 01-.957-.95c0-.524.429-.95.957-.95a.954.954 0 01.957.95zm2.718.963c-.06-1.271-.353-2.397-1.293-3.325C14.72.974 13.584.683 12.302.62 10.98.545 7.02.545 5.698.62 4.42.68 3.284.97 2.345 1.898c-.94.928-1.229 2.054-1.293 3.326-.075 1.31-.075 5.238 0 6.549.06 1.27.353 2.397 1.293 3.325.939.928 2.071 1.218 3.353 1.282 1.322.075 5.282.075 6.604 0 1.282-.06 2.418-.35 3.353-1.282.936-.928 1.229-2.054 1.293-3.325.075-1.311.075-5.235 0-6.546zm-1.707 7.951a2.69 2.69 0 01-1.521 1.51c-1.054.414-3.554.318-4.718.318-1.164 0-3.668.092-4.718-.319a2.69 2.69 0 01-1.521-1.508C2.345 12.133 2.44 9.654 2.44 8.5c0-1.155-.093-3.637.322-4.679a2.69 2.69 0 011.52-1.508c1.055-.415 3.555-.32 4.719-.32 1.164 0 3.668-.091 4.718.32.7.276 1.239.81 1.521 1.508.418 1.045.322 3.524.322 4.679 0 1.155.096 3.637-.322 4.678z"/></svg>