<svg width="122" height="30" fill="none" xmlns="http://www.w3.org/2000/svg"><path fill-rule="evenodd" clip-rule="evenodd" d="M10 0H0v10a5 5 0 005 5h10V5a5 5 0 00-5-5zm0 2H2v8a3 3 0 003 3h8V5a3 3 0 00-3-3z" fill="#F88500"/><path d="M27.423 1.964h2.159l1.36 3.995 1.36-3.995h2.176l-2.057 5.491 1.53 3.859 3.417-9.384h2.55L35.005 14h-1.972l-2.091-5.066L28.851 14h-1.972L22 1.93h2.516l3.434 9.384 1.496-3.859-2.023-5.491zm18.434 12.121c-.884 0-1.688-.17-2.414-.51a6.227 6.227 0 01-1.853-1.377 6.458 6.458 0 01-1.19-1.972 6.25 6.25 0 01.017-4.573 6.6 6.6 0 011.241-1.955 5.909 5.909 0 011.887-1.343 5.498 5.498 0 012.363-.51c.873 0 1.666.181 2.38.544a5.827 5.827 0 011.853 1.394c.51.578.907 1.235 1.19 1.972a6.204 6.204 0 01-.017 4.556 6.387 6.387 0 01-1.224 1.938 6.065 6.065 0 01-1.87 1.343 5.657 5.657 0 01-2.363.493zm-3.502-6.12c0 .521.08 1.026.238 1.513.159.487.386.918.68 1.292a3.56 3.56 0 001.105.901c.442.227.94.34 1.496.34.567 0 1.066-.113 1.496-.34a3.41 3.41 0 001.105-.935c.306-.385.533-.816.68-1.292a4.75 4.75 0 00.238-1.479c0-.521-.085-1.026-.255-1.513a3.948 3.948 0 00-.697-1.292 3.13 3.13 0 00-1.105-.884 3.09 3.09 0 00-1.462-.34c-.566 0-1.07.119-1.513.357-.442.227-.81.533-1.105.918a4.137 4.137 0 00-.68 1.292 4.918 4.918 0 00-.22 1.462zm16.352 6.12c-.884 0-1.689-.17-2.414-.51a6.226 6.226 0 01-1.853-1.377 6.456 6.456 0 01-1.19-1.972 6.248 6.248 0 01.017-4.573 6.599 6.599 0 011.24-1.955 5.906 5.906 0 011.888-1.343 5.497 5.497 0 012.363-.51c.872 0 1.666.181 2.38.544a5.828 5.828 0 011.853 1.394c.51.578.907 1.235 1.19 1.972a6.206 6.206 0 01-.017 4.556 6.39 6.39 0 01-1.224 1.938 6.068 6.068 0 01-1.87 1.343 5.657 5.657 0 01-2.363.493zm-3.502-6.12c0 .521.08 1.026.238 1.513.159.487.385.918.68 1.292.306.374.674.674 1.105.901.442.227.94.34 1.496.34.567 0 1.065-.113 1.496-.34a3.41 3.41 0 001.105-.935c.306-.385.532-.816.68-1.292.158-.487.238-.98.238-1.479 0-.521-.085-1.026-.255-1.513a3.95 3.95 0 00-.697-1.292 3.132 3.132 0 00-1.105-.884 3.091 3.091 0 00-1.462-.34c-.567 0-1.071.119-1.513.357-.442.227-.81.533-1.105.918a4.133 4.133 0 00-.68 1.292 4.915 4.915 0 00-.221 1.462zM66.405 14V1.93h4.386c.987 0 1.848.159 2.585.476.748.317 1.37.748 1.87 1.292a5.34 5.34 0 011.122 1.921c.249.725.374 1.502.374 2.329 0 .918-.142 1.751-.425 2.499a5.318 5.318 0 01-1.19 1.904 5.54 5.54 0 01-1.887 1.224c-.726.283-1.542.425-2.448.425h-4.386zm7.974-6.052c0-.578-.08-1.11-.239-1.598a3.574 3.574 0 00-.697-1.258 3.087 3.087 0 00-1.138-.816c-.443-.193-.947-.289-1.514-.289h-2.04v7.956h2.04c.579 0 1.088-.102 1.53-.306a3.097 3.097 0 001.123-.833c.305-.363.538-.788.697-1.275a5.08 5.08 0 00.237-1.581zm12.658-3.961h-3.859V14h-2.329V3.987H76.99V1.93h10.047v2.057zm9.88 7.956V14h-8.382V1.93h8.228v2.057h-5.882v2.907h5.083v1.904h-5.083v3.145h6.035zm.848-4.063a6.3 6.3 0 01.391-2.176 6.04 6.04 0 011.173-1.938 5.902 5.902 0 011.87-1.377c.737-.351 1.576-.527 2.516-.527 1.111 0 2.069.244 2.873.731.816.487 1.423 1.122 1.819 1.904l-1.802 1.241a2.934 2.934 0 00-.578-.85 2.786 2.786 0 00-.731-.561 3.033 3.033 0 00-.816-.289 3.56 3.56 0 00-.833-.102c-.589 0-1.105.119-1.547.357-.43.238-.793.55-1.088.935a4.088 4.088 0 00-.646 1.292 4.762 4.762 0 00.034 2.975c.17.487.408.918.714 1.292a3.77 3.77 0 001.122.901c.442.227.924.34 1.445.34.272 0 .556-.034.85-.102.295-.068.573-.176.833-.323.272-.147.522-.334.748-.561.227-.238.408-.521.544-.85l1.921 1.105c-.192.453-.47.856-.833 1.207-.351.34-.753.629-1.207.867-.442.238-.918.42-1.428.544a6.282 6.282 0 01-1.496.187 5.142 5.142 0 01-2.363-.544 6.33 6.33 0 01-1.853-1.411 6.972 6.972 0 01-1.207-1.989 6.383 6.383 0 01-.425-2.278zM120.3 1.93V14h-2.329V8.849h-5.474V14h-2.346V1.93h2.346v4.879h5.474V1.93h2.329z" fill="#fff"/><path d="M25.708 20.48h.708l3.54 8.52h-.888l-1.104-2.664h-3.828L23.044 29h-.9l3.564-8.52zm2.064 5.196l-1.716-4.212-1.74 4.212h3.456zm9.237-2.208c-.552.016-1.032.168-1.44.456a2.3 2.3 0 00-.864 1.188V29h-.816v-6.252h.768v1.5c.232-.48.544-.856.936-1.128a2.17 2.17 0 011.26-.408c.064 0 .116.004.156.012v.744zm3.219 2.388c0-.44.076-.856.228-1.248a3.1 3.1 0 01.636-1.02c.28-.296.612-.528.996-.696a3.14 3.14 0 011.272-.252c.592 0 1.108.136 1.548.408.44.264.772.624.996 1.08l-.792.252a1.85 1.85 0 00-.744-.744 2.017 2.017 0 00-1.044-.276c-.32 0-.62.064-.9.192a2.327 2.327 0 00-.72.528c-.2.216-.36.476-.48.78a2.86 2.86 0 00-.168.996c0 .352.06.684.18.996.12.312.284.584.492.816.208.224.448.404.72.54a2.111 2.111 0 001.476.108c.2-.056.384-.132.552-.228a2.11 2.11 0 00.432-.348c.12-.128.204-.264.252-.408l.804.24a2.123 2.123 0 01-.384.624 2.818 2.818 0 01-.6.492c-.224.136-.476.24-.756.312-.272.08-.556.12-.852.12a3.11 3.11 0 01-1.26-.252 3.179 3.179 0 01-.996-.708c-.28-.304-.5-.652-.66-1.044a3.455 3.455 0 01-.228-1.26zM55.382 29h-.816v-3.492c0-.712-.124-1.244-.372-1.596-.24-.352-.596-.528-1.068-.528-.232 0-.464.048-.696.144a2.45 2.45 0 00-.636.372c-.2.16-.376.348-.528.564a2.476 2.476 0 00-.324.708V29h-.816v-8.76h.816v3.924a2.835 2.835 0 011.032-1.116c.44-.272.916-.408 1.428-.408.36 0 .664.068.912.204.248.128.452.312.612.552.16.232.276.516.348.852.072.328.108.692.108 1.092V29zm4.62 0v-6.252h.816V29h-.816zm0-7.56v-1.2h.816v1.2h-.816zm8.493 7.26c-.048.024-.12.056-.216.096a3.722 3.722 0 01-.72.228 2.325 2.325 0 01-.48.048c-.176 0-.344-.024-.504-.072a1.23 1.23 0 01-.42-.216 1.155 1.155 0 01-.396-.912v-4.476h-.864v-.648h.864v-2.112h.816v2.112h1.44v.648h-1.44v4.248c.016.232.096.404.24.516a.892.892 0 00.516.156c.232 0 .436-.036.612-.108.176-.08.288-.136.336-.168l.216.66zm6.447.42a3.11 3.11 0 01-1.26-.252 3.22 3.22 0 01-.984-.708c-.28-.304-.5-.652-.66-1.044a3.455 3.455 0 01-.227-1.26c0-.44.075-.852.227-1.236.16-.392.377-.732.648-1.02.28-.296.612-.528.996-.696a2.96 2.96 0 011.248-.264c.456 0 .872.088 1.248.264.385.168.713.4.984.696a3.295 3.295 0 01.864 2.244v.192a.483.483 0 01-.011.132h-5.353c.024.336.1.648.228.936.136.28.308.524.516.732.209.208.444.372.709.492a2.247 2.247 0 001.464.084c.2-.056.384-.132.552-.228.168-.096.32-.212.456-.348.135-.144.24-.3.311-.468l.709.192a2.157 2.157 0 01-.409.636c-.175.184-.38.348-.611.492-.233.136-.489.24-.769.312-.28.08-.572.12-.876.12zm2.305-3.576a2.4 2.4 0 00-.24-.912 2.331 2.331 0 00-.505-.72 2.14 2.14 0 00-.707-.468 2.159 2.159 0 00-.853-.168 2.282 2.282 0 00-1.584.636c-.2.2-.363.44-.491.72-.12.28-.193.584-.217.912h4.596zm4.487.312c0-.44.076-.856.228-1.248a3.1 3.1 0 01.635-1.02c.28-.296.613-.528.997-.696a3.14 3.14 0 011.272-.252c.591 0 1.108.136 1.547.408.44.264.773.624.996 1.08l-.791.252a1.85 1.85 0 00-.744-.744 2.017 2.017 0 00-1.044-.276c-.32 0-.62.064-.9.192a2.327 2.327 0 00-.72.528c-.2.216-.36.476-.48.78a2.86 2.86 0 00-.169.996c0 .352.06.684.18.996.12.312.284.584.493.816.208.224.448.404.72.54a2.111 2.111 0 001.476.108c.2-.056.383-.132.551-.228a2.11 2.11 0 00.433-.348c.12-.128.204-.264.251-.408l.804.24a2.123 2.123 0 01-.383.624 2.818 2.818 0 01-.6.492c-.225.136-.477.24-.757.312-.272.08-.555.12-.852.12a3.11 3.11 0 01-1.26-.252 3.179 3.179 0 01-.996-.708c-.28-.304-.5-.652-.66-1.044a3.455 3.455 0 01-.227-1.26zM94.63 28.7c-.048.024-.12.056-.216.096a3.722 3.722 0 01-.72.228 2.325 2.325 0 01-.48.048c-.176 0-.344-.024-.504-.072a1.23 1.23 0 01-.42-.216 1.155 1.155 0 01-.396-.912v-4.476h-.864v-.648h.864v-2.112h.816v2.112h1.44v.648h-1.44v4.248c.016.232.096.404.24.516a.892.892 0 00.516.156c.232 0 .436-.036.612-.108.176-.08.288-.136.336-.168l.216.66zm5.856.42c-.68 0-1.188-.224-1.524-.672-.328-.456-.492-1.132-.492-2.028v-3.672h.816v3.528c0 1.416.484 2.124 1.452 2.124a2.158 2.158 0 001.344-.468c.2-.152.376-.332.528-.54.16-.208.288-.444.384-.708v-3.936h.816v5.196c0 .224.096.336.288.336V29a1.509 1.509 0 01-.24.024h-.12a.652.652 0 01-.468-.204c-.12-.128-.18-.3-.18-.516v-.72a2.961 2.961 0 01-2.604 1.536zm11.169-5.652c-.552.016-1.032.168-1.44.456a2.3 2.3 0 00-.864 1.188V29h-.816v-6.252h.768v1.5c.232-.48.544-.856.936-1.128a2.17 2.17 0 011.26-.408c.064 0 .116.004.156.012v.744zm6.351 5.652a3.11 3.11 0 01-1.26-.252 3.22 3.22 0 01-.984-.708c-.28-.304-.5-.652-.66-1.044a3.455 3.455 0 01-.228-1.26c0-.44.076-.852.228-1.236.16-.392.376-.732.648-1.02.28-.296.612-.528.996-.696a2.96 2.96 0 011.248-.264c.456 0 .872.088 1.248.264.384.168.712.4.984.696a3.295 3.295 0 01.864 2.244v.192a.483.483 0 01-.012.132h-5.352c.024.336.1.648.228.936.136.28.308.524.516.732.208.208.444.372.708.492a2.247 2.247 0 001.464.084c.2-.056.384-.132.552-.228.168-.096.32-.212.456-.348.136-.144.24-.3.312-.468l.708.192a2.157 2.157 0 01-.408.636c-.176.184-.38.348-.612.492-.232.136-.488.24-.768.312-.28.08-.572.12-.876.12zm2.304-3.576a2.4 2.4 0 00-.24-.912 2.331 2.331 0 00-.504-.72c-.2-.2-.436-.356-.708-.468a2.159 2.159 0 00-.852-.168 2.282 2.282 0 00-1.584.636c-.2.2-.364.44-.492.72-.12.28-.192.584-.216.912h4.596z" fill="#fff" fill-opacity=".45"/></svg>