<svg width="42" height="42" fill="none" xmlns="http://www.w3.org/2000/svg"><g clip-path="url(#clip0_269_2075)"><path d="M20.005 41.53C18.364 40.527.621 28.819.321 28.543c-.377-.347-.427-1.15-.101-1.618.258-.37 1.049-.548 1.458-.329.161.087 4.546 2.953 9.742 6.37 5.197 3.415 9.508 6.21 9.58 6.21.072 0 4.383-2.795 9.58-6.21 5.197-3.417 9.58-6.283 9.742-6.37.409-.219 1.2-.04 1.458.33.326.466.276 1.27-.102 1.618-.298.276-18.036 11.98-19.683 12.988-.422.258-.87.469-.995.469s-.573-.211-.995-.47zm.259-6.67c-.767-.418-.91-1.341-.302-1.95.809-.81 2.447-.284 2.447.785 0 .563-.212.917-.702 1.17-.511.266-.947.264-1.443-.006zm-3.578-2.381c-.999-.443-1.334-1.366-.762-2.095.367-.468.856-.545 1.53-.243.998.448 1.304 1.344.693 2.03-.402.45-.901.556-1.46.308zm7.605.06c-.695-.282-.96-1.2-.525-1.822.296-.423 1.228-.842 1.68-.755.474.09.909.677.909 1.226 0 .527-.403 1.014-1.073 1.294-.53.222-.574.225-.99.056zm-11.675-2.71c-.64-.354-.916-.729-.916-1.24 0-1.394 1.573-1.697 2.524-.485.392.5.37.93-.07 1.456-.393.467-.993.572-1.538.27zm15.23-.269c-.44-.526-.462-.957-.07-1.456.657-.837 1.837-1.007 2.309-.332.326.467.275 1.27-.102 1.615-.824.753-1.597.815-2.136.173zm-7.463-1.282C19.267 27.628.318 15.096.18 14.916c-.294-.382-.218-1.218.14-1.55.175-.162 4.788-3.235 10.252-6.83C18.899 1.058 20.587 0 21 0c.413 0 2.099 1.056 10.427 6.535 5.464 3.595 10.077 6.669 10.252 6.83.358.333.434 1.169.14 1.551-.15.197-19.461 12.958-20.241 13.376-.354.19-.856.184-1.195-.014zM8.67 27.241c-.63-.33-.916-.745-.916-1.333 0-1.027 1.056-1.469 2.046-.856 1.474.914.403 2.99-1.13 2.19zm23.497.066c-.175-.07-.422-.348-.55-.617-.196-.413-.205-.555-.053-.921.383-.928 1.774-1.315 2.384-.664.62.662.336 1.672-.594 2.114-.546.26-.726.273-1.187.087zM4.416 24.474a1.64 1.64 0 01-.61-.777c-.137-.413-.12-.557.103-.94.359-.617.964-.783 1.654-.455.97.461 1.268 1.444.64 2.114-.413.44-1.153.465-1.787.058zm31.38-.058c-.627-.67-.329-1.653.641-2.114.69-.328 1.295-.162 1.654.454.224.385.24.528.103.944-.325.987-1.745 1.411-2.397.716zM.678 22.013c-.48-.27-.673-.623-.673-1.236 0-1.034 1.234-1.46 2.103-.727.815.687.48 1.97-.553 2.111a1.498 1.498 0 01-.877-.148zm39.39.071c-.4-.161-.608-.565-.608-1.178 0-.375.103-.577.434-.856.879-.742 2.103-.307 2.103.747 0 .608-.202.957-.702 1.216-.458.238-.77.256-1.227.071z" fill="#F88500"/></g><defs><clipPath id="clip0_269_2075"><path fill="#fff" d="M0 0h42v42H0z"/></clipPath></defs></svg>