<svg width="55" height="36" fill="none" xmlns="http://www.w3.org/2000/svg"><path d="M11.763 34.912c.024-.19.084-.507.134-.705.05-.198.09-.456.09-.573 0-.117.03-.23.067-.253.036-.023.066-.182.066-.355s.022-.337.049-.364c.044-.044.159-.629.258-1.323.02-.145.059-.278.084-.296.026-.019.082-.27.126-.56l.114-.758c.02-.127.06-.29.091-.362.053-.125.176-.777.243-1.285a1.75 1.75 0 01.087-.362 2.04 2.04 0 00.097-.362c.139-.8.207-1.115.25-1.159.027-.027.05-.11.049-.186 0-.197.222-1.055.28-1.081.028-.012.05-.094.05-.182 0-.087.026-.159.059-.159.032 0 .077-.074.1-.164.022-.091.07-.165.106-.165.035 0 .064-.031.064-.069 0-.062.375-.505.577-.682.046-.04.198-.184.338-.32.14-.135.275-.247.299-.247.024 0 .123-.074.221-.164.098-.09.213-.165.255-.165.043 0 .088-.025.1-.056.025-.064.942-.634 1.34-.833.144-.073.277-.147.296-.165.036-.037.466-.245 1.35-.656.326-.151.644-.303.707-.336a.551.551 0 01.214-.062c.055 0 .1-.03.1-.066 0-.036.038-.065.084-.065.09 0 .625-.27 1.101-.554.163-.098.378-.212.478-.255.1-.042.181-.1.181-.128 0-.028.045-.051.1-.051.055 0 .218-.075.361-.165.144-.09.305-.165.358-.165.124 0 .234-.391.235-.83v-.337l1.186-.176v-.379c0-.519-.12-1.044-.236-1.044-.052 0-.094-.03-.094-.066a.066.066 0 00-.066-.066c-.103 0-.46-.34-.46-.44 0-.047-.023-.087-.05-.087-.085 0-.412-.814-.412-1.025 0-.084-.03-.171-.066-.194-.036-.022-.066-.214-.066-.426 0-.464-.042-.595-.194-.595-.189 0-.519-.193-.65-.382-.153-.218-.202-.417-.277-1.118-.032-.3-.08-.58-.107-.623-.05-.08-.135-.48-.2-.929-.02-.146-.005-.283.038-.326a.29.29 0 00.073-.178c0-.058.119-.221.264-.363.296-.29.298-.296.17-.583a7.834 7.834 0 01-.204-.537 9.557 9.557 0 00-.168-.46c-.177-.419-.203-.714-.169-1.944.04-1.389.09-2.037.171-2.14.028-.037.072-.206.096-.378.025-.17.073-.328.107-.35.034-.02.062-.11.062-.199 0-.088.027-.16.06-.16.032 0 .076-.074.1-.165.022-.09.18-.307.352-.48a1.5 1.5 0 011.094-.475c.137 0 .155-.03.155-.266 0-.188.045-.314.154-.43.19-.203.694-.49.86-.49.068 0 .124-.022.124-.05 0-.045.547-.185 1.251-.32.354-.07 2.158-.05 2.602.027.51.088 1.019.205 1.186.272l.38.16c.138.06.293.109.346.109.054 0 .097.026.097.058s.052.076.115.097c.212.071.813.51 1.146.836.31.304.701 1.006.824 1.479.019.072.058.191.088.263.142.345.231 1.62.231 3.294 0 .978-.015 1.925-.033 2.105-.032.315-.026.328.165.394.285.098.484.353.534.684.047.317-.01 1.05-.102 1.28a8.755 8.755 0 00-.171.543c-.062.217-.14.423-.17.458-.032.034-.058.128-.058.208 0 .08-.022.156-.05.168-.027.012-.108.14-.18.286-.14.28-.343.488-.478.492-.046 0-.083.035-.083.075 0 .044-.062.057-.155.034-.147-.037-.158-.018-.195.338-.077.732-.187 1.367-.247 1.429-.034.034-.061.13-.061.214 0 .083-.03.151-.066.151-.036 0-.066.037-.066.083 0 .112-.39.523-.599.63-.158.082-.166.108-.118.396.028.169.052.488.054.709l.004.4.478.084c.262.046.515.094.56.107.056.017.082.173.082.484 0 .566.078.748.387.905.131.067.254.137.272.156.092.096.403.262.492.262.055 0 .1.03.1.066 0 .036.03.066.065.066.055 0 .615.236.924.39.107.053 1.318.43 1.745.543.145.038.323.093.395.121.073.028.28.102.462.164.468.16 1.72.73 1.81.825.019.02.117.088.22.153.326.208.89.726 1.197 1.101.169.206.363.758.363 1.03 0 .115.026.226.058.246.033.02.074.148.092.284.043.314.163.801.241.972.033.073.075.22.093.33.066.398.181.859.243.97a.681.681 0 01.063.277c0 .09.027.23.06.314.035.083.111.388.171.678.06.29.136.578.17.641a.57.57 0 01.06.221c0 .141.197 1.012.266 1.18.03.072.068.235.084.362.043.337.185 1 .247 1.153.03.072.067.235.084.362.067.508.19 1.16.243 1.285.064.151.136.807.152 1.383l.01.395-30.93.033.044-.346zm31.578-3.947c0-.115-.027-.3-.06-.412a13.194 13.194 0 01-.248-1.19 1.836 1.836 0 00-.083-.33 6.97 6.97 0 01-.167-.658 7.917 7.917 0 00-.165-.659c-.046-.12-.266-.987-.394-1.548-.124-.549-.22-.897-.274-1.003a.703.703 0 01-.058-.267c0-.084-.029-.181-.064-.217-.035-.035-.084-.279-.108-.542-.025-.263-.07-.494-.101-.513-.03-.019-.056-.104-.056-.189 0-.33-.482-1.108-1.021-1.65-.29-.29-.596-.581-.68-.646-.295-.227-1.003-.638-1.1-.638-.053 0-.097-.022-.097-.05 0-.053-.481-.279-.594-.279-.036 0-.065-.028-.065-.061 0-.034-.067-.071-.148-.083a.187.187 0 01-.17-.169c-.011-.081.006-.148.038-.148s.127-.137.211-.305c.15-.298.663-.88.777-.88.032 0 .115-.054.185-.118.07-.065.224-.158.342-.206l.214-.088v-.635c0-.71-.023-.748-.502-.835a1.267 1.267 0 01-.321-.091 3.27 3.27 0 00-.462-.165 11.95 11.95 0 01-.546-.177.963.963 0 00-.28-.057c-.07 0-.129-.026-.129-.057 0-.032-.112-.076-.249-.098a2.446 2.446 0 01-.576-.206c-.18-.09-.364-.165-.41-.166-.045 0-.082-.03-.082-.066 0-.036.026-.066.059-.066.032 0 .077-.074.1-.164.023-.09.07-.165.106-.165.035 0 .064-.074.064-.165 0-.09.03-.164.066-.164.037 0 .066-.06.066-.13 0-.072.048-.252.107-.399.125-.312.085-.402-.086-.195-.403.486-1.14 1.138-1.14 1.008 0-.033.027-.089.06-.123.098-.102.598-1.1.598-1.194 0-.048.03-.087.066-.087.036 0 .066-.033.066-.073 0-.07.148-.438.268-.666.075-.142.195-.606.236-.908.017-.127.056-.29.086-.362.06-.142.19-1.06.274-1.91.028-.29.08-.705.114-.923.034-.217.097-.676.14-1.02.044-.345.104-.686.134-.758.03-.072.073-.265.094-.428.066-.522.2-1.173.251-1.224.027-.027.05-.12.05-.204a.7.7 0 01.06-.27 55.8 55.8 0 00.344-.69c.156-.317.307-.576.335-.576.028 0 .05-.034.05-.075 0-.102.672-.778.775-.78.045 0 .082-.025.082-.053 0-.028.082-.086.181-.13.1-.042.341-.167.536-.277.196-.11.396-.2.445-.2.05 0 .09-.027.09-.059s.081-.074.18-.094c.314-.061.769-.191.927-.265.212-.097 1.904-.088 2.004.012a.37.37 0 00.227.076c.164 0 .518.124 1.06.37.191.086.377.157.412.157.035 0 .064.027.064.059s.052.074.115.094c.355.112 1.334.915 1.334 1.094 0 .034.038.1.084.148.165.17.702 1.351.746 1.639.024.16.067.322.094.359.028.036.066.199.085.362.02.163.085.578.145.922.151.869.349 2.21.495 3.36.131 1.034.288 1.839.4 2.057a.608.608 0 01.06.23.87.87 0 00.098.305c.054.104.099.23.099.28 0 .05.03.091.066.091.036 0 .065.037.065.082 0 .045.079.245.175.444l.346.726c.094.2.2.383.235.408.035.025.045.064.023.087-.064.064-.722-.53-1.135-1.024l-.19-.229.046.264c.086.483.304 1.056.437 1.153a.48.48 0 01.092.181c.035.111.016.159-.073.188a6.268 6.268 0 00-.405.167 2.82 2.82 0 01-.48.166c-.106.022-.21.065-.229.097-.02.031-.108.057-.197.057a.704.704 0 00-.276.06c-.12.064-.982.34-1.44.461-.402.107-.426.162-.376.862.042.596.048.614.23.683.103.039.187.094.187.122 0 .028.032.051.07.051.079 0 .484.292.687.495.073.072.192.25.264.394.073.144.17.302.214.35.046.049.083.111.083.14 0 .121.403.458.636.53.257.08.507.184.973.406.143.067.299.123.346.123.048 0 .087.029.087.064 0 .036.074.084.164.106.09.023.165.064.165.09 0 .074.65.398.796.398.07 0 .126.023.126.051 0 .057.494.202.873.257.136.02.264.062.284.095.02.032.11.058.2.058.09 0 .363.049.606.108.477.117 1.09.51 1.165.747.024.074.07.134.104.134.034 0 .062.044.062.098 0 .055.022.1.049.1.065 0 .28.38.28.493 0 .048.035.1.077.114.08.027.153 1.11.227 3.41.021.67.065 1.247.098 1.281.032.035.059.665.059 1.4v1.337H43.341v-.21zM.131 30.09c0-.16-.03-.31-.066-.333-.082-.05-.089-1.629-.007-1.716.032-.034.077-.403.098-.82.043-.821.176-1.805.255-1.883.027-.027.05-.12.05-.207 0-.17.167-.768.268-.956a.543.543 0 00.06-.208c0-.052.044-.179.097-.281.052-.103.134-.283.18-.4.047-.118.102-.215.123-.215.021 0 .107-.136.19-.303.19-.382 1.005-1.212 1.354-1.38.145-.07.273-.15.285-.178.012-.027.05-.049.083-.049s.214-.074.402-.165c.188-.09.38-.164.428-.164.047 0 .086-.03.086-.065 0-.036.12-.085.265-.108.146-.023.281-.068.3-.1.02-.03.094-.057.165-.057a.66.66 0 00.243-.057 4.92 4.92 0 01.51-.177c.217-.066.424-.137.46-.16.037-.021.237-.095.445-.163.208-.067.379-.148.379-.178s.066-.056.148-.057a.552.552 0 00.276-.099.498.498 0 01.247-.097c.066 0 .12-.03.12-.066 0-.036.044-.066.099-.066a.543.543 0 00.214-.062c.063-.035.233-.115.378-.178a1.61 1.61 0 00.296-.153 1.93 1.93 0 01.33-.166 2.24 2.24 0 00.329-.163c.043-.046.723-.375.873-.422.063-.02.115-.097.115-.17 0-.074.027-.135.06-.135.032 0 .074-.126.094-.28.02-.154.083-.517.142-.806.195-.958.195-.93.007-1.132-.094-.101-.171-.222-.171-.268 0-.045-.027-.082-.059-.082s-.077-.075-.1-.165c-.023-.09-.07-.165-.106-.165-.036 0-.065-.044-.065-.099 0-.054-.03-.098-.065-.098-.037 0-.066-.048-.066-.106a.788.788 0 00-.093-.28c-.178-.333-.374-.81-.412-1.004-.022-.107-.065-.21-.097-.23-.031-.019-.057-.11-.057-.202a2.6 2.6 0 00-.104-.523c-.093-.323-.12-.356-.29-.356-.205 0-.506-.296-.557-.549a9.326 9.326 0 01-.187-1.833c-.016-.896-.013-.905.388-1.147.104-.063.107-.094.03-.278-.12-.292-.14-3.198-.021-3.317a.32.32 0 00.082-.195c0-.4.902-1.506 1.499-1.837.154-.086.28-.177.28-.203 0-.025.074-.065.164-.087.091-.023.165-.07.165-.106 0-.036.045-.065.099-.065.054 0 .099-.028.099-.061 0-.034.054-.08.12-.1a.856.856 0 00.249-.153 2.54 2.54 0 01.357-.243 2.25 2.25 0 00.36-.252c.073-.068.184-.152.248-.187.102-.055.115-.028.115.236 0 .164.015.299.034.299.018 0 .347-.314.73-.697.383-.383.715-.678.738-.656.022.023.048.232.057.466.01.234.055.492.101.573l.084.15.022-.182c.024-.208.145-.231.431-.082.104.054.23.098.28.098.05 0 .092.024.092.052 0 .028.148.109.33.179.18.07.328.144.328.164 0 .02.133.096.296.167.163.072.296.152.297.18 0 .027.03.049.068.049.083 0 .945.536.975.607.012.028.059.052.104.052.145 0 .878.768 1.006 1.054a.479.479 0 00.083.131c.08.07.268.701.268.902 0 .116.033.231.074.256.073.046.053 1.086-.048 2.53l-.04.56.237.126c.13.07.237.166.237.215 0 .048.027.088.059.088.106 0 .136.547.076 1.35-.033.435-.08.886-.105 1.003-.053.254-.325.545-.509.545-.162 0-.306.18-.309.385-.003.211-.221 1.026-.282 1.053-.027.012-.05.088-.05.169 0 .08-.043.204-.096.274a.49.49 0 00-.099.205c-.005.197-.683 1.229-1.17 1.783-.105.119-.124.214-.1.494.018.19.058.375.09.41.032.034.058.165.058.291 0 .126.05.44.109.696l.108.467.93.458c.51.252 1.027.515 1.148.585l.22.127-.253.094c-.14.05-.305.11-.368.13-.064.02-.115.062-.115.094s-.075.058-.165.058c-.09 0-.165.03-.165.066 0 .036-.037.066-.082.067-.045 0-.26.09-.478.196-.217.107-.432.195-.477.196-.046.001-.082.024-.082.052 0 .027-.097.09-.215.14-.117.05-.398.206-.624.346-.225.14-.429.254-.452.254-.047 0-.763.505-.995.701-.08.067-.228.189-.33.27a5.251 5.251 0 00-.876.874c-.162.199-.31.377-.328.395a1.035 1.035 0 00-.106.165l-.244.442c-.215.387-.507 1.223-.507 1.452 0 .094-.03.248-.065.342a4.446 4.446 0 00-.138.58c-.08.448-.132.699-.292 1.4-.059.253-.132.579-.164.724-.032.145-.105.47-.164.724-.059.254-.13.595-.16.758-.104.587.545.527-5.677.527H.13v-.293z" fill="#F88500"/></svg>