<svg width="16" height="13" xmlns="http://www.w3.org/2000/svg"><path d="M14.355 3.241c.01.142.01.284.01.426 0 4.336-3.299 9.33-9.33 9.33A9.267 9.267 0 010 11.526c.264.03.518.041.792.041a6.568 6.568 0 004.071-1.401 3.285 3.285 0 01-3.066-2.274c.203.03.406.05.62.05.294 0 .588-.04.862-.111A3.28 3.28 0 01.65 4.612v-.04c.437.243.945.395 1.483.415A3.277 3.277 0 01.67 2.257c0-.61.162-1.168.447-1.656a9.321 9.321 0 006.761 3.432 3.702 3.702 0 01-.081-.751 3.278 3.278 0 013.28-3.28 3.27 3.27 0 012.395 1.036 6.456 6.456 0 002.081-.792 3.27 3.27 0 01-1.441 1.807c.66-.07 1.3-.254 1.888-.507a7.048 7.048 0 01-1.645 1.695z"/></svg>