<svg width="40" height="40" fill="none" xmlns="http://www.w3.org/2000/svg"><path d="M20 0c-3.876 0-7.636 1.11-10.874 3.211a.763.763 0 00.832 1.281A18.403 18.403 0 0120 1.527c10.186 0 18.473 8.287 18.473 18.473 0 10.186-8.287 18.473-18.473 18.473C9.814 38.473 1.527 30.186 1.527 20A18.516 18.516 0 017.579 6.326a.763.763 0 00-1.027-1.13A20.046 20.046 0 000 20c0 11.028 8.972 20 20 20s20-8.972 20-20S31.028 0 20 0z" fill="#F88500"/><path d="M33.587 10.928a.763.763 0 10-1.269.849A14.738 14.738 0 0134.81 20c0 8.166-6.643 14.81-14.81 14.81-8.165 0-14.808-6.644-14.808-14.81S11.834 5.19 20 5.19c3.895 0 7.574 1.501 10.357 4.225a.763.763 0 101.068-1.091A16.245 16.245 0 0020 3.664C10.992 3.664 3.664 10.992 3.664 20S10.992 36.336 20 36.336 36.336 29.008 36.336 20c0-3.247-.95-6.384-2.749-9.072z" fill="#F88500"/><path d="M20 8.346a11.56 11.56 0 00-6.927 2.282.763.763 0 10.908 1.227 10.045 10.045 0 016.02-1.982c5.583 0 10.126 4.543 10.126 10.127 0 4.658-3.15 8.698-7.663 9.826a.763.763 0 10.37 1.48A11.633 11.633 0 0031.654 20c0-6.426-5.228-11.654-11.654-11.654zm-6.407 19.498A10.096 10.096 0 019.873 20c0-2.111.643-4.134 1.86-5.85a.763.763 0 10-1.246-.883A11.577 11.577 0 008.346 20c0 3.511 1.56 6.8 4.281 9.026a.76.76 0 001.074-.108.763.763 0 00-.108-1.074z" fill="#F88500"/><path d="M26.616 19.237a.763.763 0 00-.763.763A5.859 5.859 0 0120 25.852 5.859 5.859 0 0114.148 20 5.859 5.859 0 0120 14.148a.763.763 0 100-1.527c-4.069 0-7.379 3.31-7.379 7.379 0 4.069 3.31 7.38 7.38 7.38 4.068 0 7.378-3.311 7.378-7.38a.763.763 0 00-.763-.763z" fill="#F88500"/><path d="M20 16.896A3.108 3.108 0 0016.895 20 3.108 3.108 0 0020 23.104 3.108 3.108 0 0023.104 20 3.108 3.108 0 0020 16.896zm0 4.682A1.58 1.58 0 0118.422 20c0-.87.708-1.578 1.578-1.578.87 0 1.577.708 1.577 1.578A1.58 1.58 0 0120 21.578z" fill="#F88500"/></svg>