<svg width="41" height="40" fill="none" xmlns="http://www.w3.org/2000/svg"><g clip-path="url(#clip0_140_174)" fill="#F88500"><path d="M20.921 0c-3.862 0-7.607 1.11-10.833 3.211a.765.765 0 00-.224 1.056.76.76 0 001.052.225 18.283 18.283 0 0110.005-2.965c10.148 0 18.404 8.287 18.404 18.473 0 10.186-8.256 18.473-18.404 18.473S2.517 30.186 2.517 20a18.548 18.548 0 016.03-13.674.765.765 0 00.051-1.079.758.758 0 00-1.074-.051A20.08 20.08 0 00.996 20c0 11.028 8.938 20 19.925 20s19.925-8.972 19.925-20S31.908 0 20.92 0z"/><path d="M34.457 10.928a.758.758 0 00-1.055-.21.765.765 0 00-.209 1.059A14.778 14.778 0 0135.675 20c0 8.166-6.619 14.81-14.754 14.81S6.168 28.165 6.168 20 12.786 5.19 20.92 5.19c3.88 0 7.545 1.501 10.318 4.225.3.295.782.29 1.076-.012a.765.765 0 00-.012-1.08A16.152 16.152 0 0020.92 3.664C11.947 3.664 4.647 10.992 4.647 20s7.3 16.336 16.274 16.336S37.195 29.008 37.195 20c0-3.247-.947-6.384-2.738-9.072z"/><path d="M20.921 8.346c-2.506 0-4.893.79-6.901 2.282a.765.765 0 00-.16 1.067.76.76 0 001.065.16 9.982 9.982 0 015.996-1.982c5.563 0 10.09 4.543 10.09 10.127 0 4.658-3.14 8.698-7.635 9.826a.764.764 0 00.368 1.48C28.918 30.01 32.532 25.36 32.532 20c0-6.426-5.208-11.654-11.61-11.654zm-6.382 19.498A10.111 10.111 0 0110.832 20c0-2.111.64-4.135 1.853-5.85a.765.765 0 00-.18-1.065.759.759 0 00-1.061.181A11.607 11.607 0 009.311 20c0 3.511 1.555 6.8 4.265 9.026a.756.756 0 001.07-.108.765.765 0 00-.107-1.074z"/><path d="M27.512 19.237a.76.76 0 00-.76.763c0 3.227-2.616 5.852-5.831 5.852-3.215 0-5.83-2.625-5.83-5.852 0-3.227 2.615-5.852 5.83-5.852.42 0 .76-.342.76-.764a.762.762 0 00-.76-.763c-4.054 0-7.351 3.31-7.351 7.379 0 4.069 3.297 7.38 7.351 7.38s7.351-3.311 7.351-7.38a.762.762 0 00-.76-.763z"/><path d="M20.921 16.896A3.102 3.102 0 0017.828 20a3.102 3.102 0 003.093 3.104A3.102 3.102 0 0024.014 20a3.102 3.102 0 00-3.093-3.104zm0 4.682A1.576 1.576 0 0119.349 20c0-.87.705-1.578 1.572-1.578.867 0 1.572.708 1.572 1.578 0 .87-.705 1.578-1.572 1.578z"/></g><defs><clipPath id="clip0_140_174"><path fill="#fff" transform="translate(.996)" d="M0 0h39.85v40H0z"/></clipPath></defs></svg>