<svg viewBox="0 0 320 512" xmlns="http://www.w3.org/2000/svg" xmlns:xlink="http://www.w3.org/1999/xlink"><style>:root&gt;svg{display:none}:root&gt;svg:target{display:block}</style><svg fill="none" viewBox="0 0 9 15" id="arrow-left" xmlns="http://www.w3.org/2000/svg"><g clip-path="url(#aaclip0_3_61)" fill="#818B9D"><path d="M7.146 14.178L.707 7.89a.547.547 0 010-.787.578.578 0 01.805 0l6.439 6.29a.546.546 0 010 .785.578.578 0 01-.805 0z"/><path d="M7.951 1.606l-6.439 6.29a.578.578 0 01-.928-.18.547.547 0 01.123-.607l6.44-6.29a.578.578 0 01.927.182.547.547 0 01-.123.605z"/></g><defs><clipPath id="aaclip0_3_61"><path fill="#fff" transform="translate(.318 .344)" d="M0 0h8.026v14.312H0z"/></clipPath></defs></svg><svg viewBox="0 0 10 10" id="arrow-next" xmlns="http://www.w3.org/2000/svg"><path d="M9.816 5.441l-2.5 2.5a.624.624 0 01-.882 0 .62.62 0 010-.882l1.433-1.434H.625A.63.63 0 010 4.985c0-.368.281-.61.625-.61h7.242L6.434 2.941a.627.627 0 010-.882.62.62 0 01.882 0l2.5 2.5a.62.62 0 010 .882zm0 0" fill="#f88500"/></svg><svg viewBox="0 0 10 10" id="arrow-prev" xmlns="http://www.w3.org/2000/svg"><path d="M.184 4.559l2.5-2.5a.62.62 0 01.882 0 .62.62 0 010 .882L2.133 4.375h7.242c.344 0 .625.281.625.625a.627.627 0 01-.625.625H2.133l1.433 1.434a.62.62 0 010 .882.62.62 0 01-.882 0l-2.5-2.5a.62.62 0 010-.882zm0 0" fill="#c4c4c4"/></svg><svg fill="none" viewBox="0 0 9 15" id="arrow-right" xmlns="http://www.w3.org/2000/svg"><g clip-path="url(#adclip0_3_66)" fill="#818B9D"><path d="M1.854.821l6.439 6.29a.547.547 0 010 .786.578.578 0 01-.805 0l-6.439-6.29a.547.547 0 010-.786.578.578 0 01.805 0z"/><path d="M1.049 13.394l6.439-6.29a.578.578 0 01.928.18.547.547 0 01-.123.607l-6.44 6.29a.578.578 0 01-.927-.182.547.547 0 01.123-.605z"/></g><defs><clipPath id="adclip0_3_66"><path fill="#fff" transform="rotate(-180 4.341 7.328)" d="M0 0h8.026v14.312H0z"/></clipPath></defs></svg><svg viewBox="0 0 15 9" id="arrow-up" xmlns="http://www.w3.org/2000/svg"><path d="M.477 6.829l6.29-6.44a.547.547 0 01.786 0 .578.578 0 010 .806l-6.29 6.439a.547.547 0 01-.786 0 .578.578 0 010-.805z"/><path d="M13.05 7.633L6.76 1.194a.578.578 0 01.18-.928.547.547 0 01.607.124l6.29 6.439a.578.578 0 01-.182.927.547.547 0 01-.605-.123z"/></svg><svg fill="none" viewBox="0 0 69 31" id="auto" xmlns="http://www.w3.org/2000/svg"><path d="M26.993 30.921a4.241 4.241 0 01-3.186-4.062c-.013-.999.173-1.657.68-2.418 1.477-2.211 4.614-2.521 6.481-.64.883.888 1.133 1.548 1.134 2.996.002 1.111-.032 1.296-.339 1.883-.71 1.358-2.015 2.22-3.492 2.31-.45.026-1.025-.004-1.278-.069zm1.731-3.031c.642-.452.747-1.497.204-2.01-.946-.896-2.377-.225-2.223 1.04.118.962 1.256 1.509 2.02.97zm27.045 2.995c-1.267-.36-2.38-1.409-2.857-2.692-.302-.813-.227-2.418.15-3.191.446-.915 1.069-1.546 1.959-1.988.731-.362.929-.405 1.863-.405.934 0 1.132.043 1.862.405 1.504.744 2.325 2.084 2.321 3.783-.004 1.773-.917 3.175-2.536 3.896-.7.312-2.02.404-2.762.192zm2.001-3.154c.343-.308.4-.44.4-.934 0-.493-.057-.625-.4-.934-.3-.269-.522-.36-.885-.36-.364 0-.586.091-.885.36-.344.309-.4.441-.4.934 0 .494.056.626.4.934.299.27.521.36.885.36s.586-.09.885-.36zM15.4 23.596V21.44h-.434c-.977 0-1.404-1.25-.677-1.981l.358-.36h3.87c4.251 0 4.422-.026 4.71-.725.185-.453.074-1.022-.26-1.326-.234-.214-.623-.232-6.047-.29l-5.798-.062-.336-.338a1.158 1.158 0 010-1.663l.336-.34 9.86-.06 9.858-.062.296-.346a1.14 1.14 0 000-1.526l-.296-.346-15.12-.061L.6 11.89l-.258-.26c-.142-.14-.287-.475-.322-.742-.054-.403-.009-.554.264-.88l.328-.393 18.038-.032 18.038-.032.336-.339c.47-.472.47-1.19 0-1.663l-.337-.338-14.345-.062c-7.89-.034-14.42-.11-14.511-.17-.324-.21-.53-.927-.39-1.355.28-.855-.213-.816 10.266-.816 6.52 0 9.52-.041 9.72-.133.742-.34.884-1.454.25-1.956-.31-.245-.46-.251-6.301-.251-6.373 0-6.64-.023-6.945-.598-.23-.432-.157-1.085.163-1.459l.295-.346L30.87.032 46.85 0v21.931h1.47V5.423h10.628l.249.318c.218.28 2.234 2.41 6.808 7.197.745.78 1.723 1.805 2.173 2.28l.82.861.002 4.836v4.835h-6.547l-.21-.718c-.294-1.007-1.072-2.123-1.939-2.779-2.29-1.733-5.367-1.516-7.39.52-.705.711-1.347 1.816-1.485 2.56l-.078.417H33.538l-.077-.417c-.244-1.31-1.67-3.038-3.05-3.694-3.122-1.488-6.858.204-7.855 3.557l-.146.493-3.505.032-3.505.033v-2.158zM62.25 11.86c-2.24-2.354-4.13-4.322-4.2-4.371-.068-.05-1.736-.092-3.704-.093l-3.58-.002v8.747h15.558l-4.074-4.28z" fill="#F88500"/></svg><svg fill="none" viewBox="0 0 3 42" id="blog-decor" xmlns="http://www.w3.org/2000/svg"><path fill="#F88500" d="M0 0h2.864v42H0z"/></svg><svg viewBox="0 0 320 512" id="close" xmlns="http://www.w3.org/2000/svg"><path d="M310.6 361.4c12.5 12.5 12.5 32.75 0 45.25-6.2 6.25-14.4 9.35-22.6 9.35s-16.38-3.125-22.62-9.375L160 301.3 54.63 406.6C48.38 412.9 40.19 416 32 416s-16.37-3.1-22.625-9.4c-12.5-12.5-12.5-32.75 0-45.25l105.4-105.4L9.375 150.6c-12.5-12.5-12.5-32.75 0-45.25s32.75-12.5 45.25 0L160 210.8l105.4-105.4c12.5-12.5 32.75-12.5 45.25 0s12.5 32.75 0 45.25l-105.4 105.4L310.6 361.4z"/></svg><svg fill="none" viewBox="0 0 235 280" id="decoration" xmlns="http://www.w3.org/2000/svg"><path opacity=".1" d="M0 0h230a5 5 0 015 5v275H5a5 5 0 01-5-5V0z" fill="#202328"/></svg><svg fill="none" viewBox="0 0 42 42" id="design-tools" xmlns="http://www.w3.org/2000/svg"><path d="M.215 41.785L0 41.57V19.306l.215-.215a.698.698 0 01.503-.215c.265 0 1.14.852 11.335 11.059C22.248 40.14 23.1 41.015 23.1 41.282a.7.7 0 01-.215.503L22.67 42H.43l-.215-.215zm20.435-1.208c0-.013-4.331-4.358-9.625-9.657L1.4 21.285v19.314h9.625c5.294 0 9.625-.01 9.625-.022zM4.415 37.58l-.215-.215v-7.548l.215-.215a.698.698 0 01.502-.215c.261 0 .615.328 3.985 3.702 3.37 3.373 3.698 3.727 3.698 3.99a.7.7 0 01-.215.502l-.214.215H4.63l-.215-.215zm5.735-1.21c0-.012-1.024-1.046-2.275-2.298L5.6 31.797v4.597h2.275c1.251 0 2.275-.01 2.275-.022zm11.55.727v-.704h5.753c3.926 0 5.864-.032 6.103-.098.47-.13 1.217-.876 1.346-1.347.054-.193.097-.577.097-.854L35 33.59H18.63l-.215-.215-.215-.215v-6.147l.215-.215.215-.215H35V12.177l-1.4 1.4-1.4 1.399v9.777l-.215.215-.215.215H15.83l-.215-.215c-.212-.213-.215-.235-.215-1.796v-1.58h-.296c-.445 0-1.767-.407-2.46-.756-2.018-1.018-3.45-2.835-4.032-5.114-.263-1.028-.223-2.771.086-3.803.421-1.402 1.02-2.427 1.974-3.38 1.016-1.015 2.26-1.706 3.734-2.074.892-.222 2.657-.198 3.575.048 2.161.582 3.985 2.045 4.955 3.976l.341.679h5.118l3.302-3.307L35 4.554v-.7c0-.386-.044-.858-.098-1.051-.13-.471-.875-1.218-1.346-1.348-.494-.136-24.618-.136-25.112 0-.47.13-1.217.877-1.346 1.348C7.03 3.048 7 5.93 7 12.416v9.263H5.596l.024-9.53.024-9.53C6.154.937 7.042.296 8.269 0H33.73l.59.28c1.025.485 1.838 1.513 1.968 2.485.026.19.066.344.09.344.025 0 .358-.299.741-.665.897-.858 1.29-1.042 2.211-1.037.817.005 1.358.232 1.894.797.541.57.722 1.024.726 1.825.006 1.154-.03 1.204-2.973 4.162L36.4 10.78v15.803h5.171l.214.215.215.215v6.147l-.215.215-.214.215h-5.147l-.045.794c-.039.683-.089.882-.36 1.433-.383.773-.898 1.275-1.703 1.657l-.585.277-6.015.025-6.016.024v-.703zm18.9-7.01v-2.103h-1.4v1.402h-1.4v-1.4h-1.4v1.4H35v-1.4h-1.4v1.4h-1.4v-1.4h-1.4v1.4h-1.4v-1.4H28v1.4h-1.4v-1.4h-1.4v1.4h-1.4v-1.4h-1.4v1.4H21v-1.4h-1.4v4.204h21v-2.102zm-9.8-10.006v-3.7l-.865.864-.866.863-1.944.39c-1.07.215-2.038.367-2.153.339-.114-.029-.274-.155-.356-.28-.143-.219-.134-.306.236-2.21l.384-1.983.874-.898.873-.898H23.71l.056.942c.22 3.737-2.18 6.983-5.877 7.947-.282.073-.642.133-.8.133H16.8v2.19h14v-3.7zm-15.15-8.747c.194-.157.383-.167 3.138-.167 2.586 0 2.925-.016 2.88-.133-.135-.352-.794-1.197-1.311-1.681a6.446 6.446 0 00-2.405-1.412c-.588-.196-.817-.224-1.852-.224-1.049 0-1.26.027-1.881.236-1.739.583-2.976 1.653-3.77 3.258-.885 1.789-.876 3.677.026 5.559.341.712.51.942 1.196 1.623 1.016 1.011 2.04 1.563 3.298 1.778l.387.066.044-4.367.044-4.368.206-.168zm2.607 8.553c.868-.316 1.504-.736 2.262-1.494.8-.8 1.259-1.533 1.593-2.54.201-.608.233-.851.238-1.84.003-.626-.022-1.207-.057-1.291-.058-.142-.274-.154-2.778-.154H16.8v7.684l.451-.082a7.515 7.515 0 001.006-.283zm8.464-2.723c.224-.034.424-.09.445-.124.021-.034-.152-.25-.385-.48-.232-.23-.442-.384-.465-.343-.024.04-.07.232-.103.424a5.998 5.998 0 01-.109.517c-.036.122-.014.153.081.117.072-.028.313-.078.536-.111zm7.098-5.822l5.074-5.08-.897-.898-.896-.897-5.096 5.1-5.096 5.102.872.877c.48.482.893.876.919.876.025 0 2.329-2.286 5.12-5.08zm6.42-6.44c.496-.564.489-1.269-.018-1.776-.532-.532-1.337-.486-1.892.108l-.214.23.869.873c.478.48.895.874.927.874.032 0 .18-.139.329-.308zM8.4 3.46v-.7h1.4v1.4H8.4v-.7zm2.8 0v-.7h1.4v1.4h-1.4v-.7zm2.8 0v-.7h1.4v1.4H14v-.7z" fill="#F88500"/></svg><svg fill="none" viewBox="0 0 5 35" id="dot-decor" xmlns="http://www.w3.org/2000/svg"><circle cx="2.5" cy="2.5" r="2.5" fill="#F88500"/><circle cx="2.5" cy="17.5" r="2.5" fill="#F88500"/><circle cx="2.5" cy="32.5" r="2.5" fill="#F88500"/></svg><svg fill="none" viewBox="0 0 35 5" id="dot-decor2" xmlns="http://www.w3.org/2000/svg"><circle cx="32.5" cy="2.5" r="2.5" transform="rotate(90 32.5 2.5)" fill="#F88500"/><circle cx="17.5" cy="2.5" r="2.5" transform="rotate(90 17.5 2.5)" fill="#F88500"/><circle cx="2.5" cy="2.5" r="2.5" transform="rotate(90 2.5 2.5)" fill="#F88500"/></svg><svg fill="none" viewBox="0 0 61 49" id="eco" xmlns="http://www.w3.org/2000/svg"><path d="M48.31 34.116c-1.583.33-3.517.34-5.261.026l-.578-.105.922-1.492c1.671-2.703 2.735-4.742 3.867-7.409 1.12-2.637 1.876-4.988 2.427-7.539.303-1.405.68-3.695.603-3.664-.019.008-.158.515-.31 1.128-1.6 6.471-4.932 13.165-8.643 17.368-.414.469-.78.833-.813.81-.352-.255-1.633-1.902-2.27-2.918-.65-1.04-1.396-2.84-1.572-3.794-.338-1.833-.124-3.323.717-4.986 1.014-2.007 2.633-3.806 5.54-6.157 3.413-2.759 4.445-3.75 5.54-5.323.778-1.114 1.434-2.638 1.685-3.911.077-.389.158-.715.181-.726.072-.034.873 1.209 1.343 2.085a26.61 26.61 0 011.761 4.051c2.785 8.197 2.552 15.999-.59 19.794-.56.677-1.227 1.272-1.87 1.671-.667.414-1.962.941-2.678 1.09v.001zm-17.15 6.842c-3.044.934-5.892.939-8.64.013-2.967-.999-6.056-3.422-8.017-6.287-.871-1.273-1.4-2.29-2.666-5.124-.656-1.469-1.332-2.89-1.562-3.281-1.807-3.086-4.12-4.582-8.356-5.404l-.633-.123.35-.285c.534-.435 1.721-1.214 2.48-1.627 1.152-.626 4.097-1.72 5.646-2.096 5.658-1.377 12.054-1.42 17.566-.118 3.12.736 6.126 2.02 8.137 3.476l.501.363-.51 1.166c-.556 1.273-.733 1.923-.796 2.923-.137 2.187.808 4.564 2.705 6.808.284.336.51.625.504.642-.008.016-.193-.12-.412-.302-4.401-3.658-9.03-6.166-14.012-7.592-1.27-.364-3.997-.957-4.137-.9-.02.008.64.298 1.467.644 3.994 1.677 7.35 3.546 10.348 5.76 1.083.801 2.987 2.47 3.832 3.358 1.195 1.257 2.401 2.879 2.781 3.74l.19.43-.543.441c-1.656 1.35-4.304 2.785-6.222 3.374zm6.854-8.761c-.04-.03-.065-.075-.054-.1.01-.025.057-.005.102.043.095.1.064.137-.048.057z" fill="#F88500"/></svg><svg fill="none" viewBox="0 0 58 49" id="eco-accent" xmlns="http://www.w3.org/2000/svg"><path d="M45.326 33.308c-1.517.346-3.367.378-5.032.086l-.551-.096.898-1.49c1.627-2.7 2.667-4.732 3.779-7.389 1.099-2.626 1.848-4.965 2.403-7.5.305-1.397.69-3.671.616-3.639-.018.008-.156.512-.308 1.121-1.602 6.433-4.861 13.107-8.456 17.316-.401.47-.755.835-.786.812-.334-.249-1.541-1.866-2.139-2.866-.61-1.023-1.305-2.798-1.462-3.742-.304-1.813-.083-3.292.74-4.95.991-2.001 2.56-3.803 5.365-6.167 3.294-2.775 4.292-3.77 5.357-5.34.755-1.115 1.4-2.632 1.654-3.897.077-.386.159-.71.18-.722.07-.034.822 1.188 1.263 2.051a26.23 26.23 0 011.64 3.995c2.574 8.092 2.266 15.827-.78 19.626-.544.677-1.188 1.275-1.807 1.678-.643.418-1.887.956-2.573 1.112zm-16.477 6.98c-2.922.963-5.645 1-8.264.115-2.826-.955-5.754-3.32-7.598-6.138-.82-1.252-1.314-2.253-2.494-5.047-.612-1.449-1.243-2.85-1.458-3.235-1.694-3.037-3.89-4.493-7.933-5.259l-.604-.114.337-.286c.516-.438 1.66-1.224 2.39-1.642 1.109-.633 3.937-1.752 5.423-2.143 5.426-1.43 11.544-1.548 16.801-.322 2.975.693 5.837 1.931 7.744 3.35l.476.354-.5 1.161c-.546 1.269-.723 1.915-.794 2.907-.154 2.17.723 4.514 2.513 6.716.268.33.482.614.475.63-.007.017-.183-.115-.39-.293-4.17-3.575-8.57-6.007-13.319-7.362-1.21-.346-3.812-.902-3.947-.843-.018.007.61.287 1.396.62 3.802 1.616 6.992 3.43 9.834 5.59 1.028.78 2.83 2.411 3.629 3.283 1.129 1.231 2.265 2.825 2.619 3.674l.177.423-.524.445c-1.599 1.356-4.147 2.81-5.988 3.416zm6.651-8.763c-.039-.028-.062-.072-.05-.097.01-.025.054-.007.097.04.089.099.059.136-.047.057z" fill="#F88500"/></svg><svg viewBox="0 0 16 17" id="facebook" xmlns="http://www.w3.org/2000/svg"><path d="M16 8.548c0-4.419-3.58-8-8-8s-8 3.581-8 8a8.003 8.003 0 006.75 7.904V10.86H4.718V8.548H6.75V6.786c0-2.005 1.194-3.112 3.022-3.112.875 0 1.79.156 1.79.156v1.967h-1.008c-.994 0-1.304.617-1.304 1.25v1.501h2.219l-.355 2.313H9.25v5.59A8.003 8.003 0 0016 8.549z"/></svg><svg fill="none" viewBox="0 0 16 19" id="fb" xmlns="http://www.w3.org/2000/svg"><path d="M16 9.548c0-4.419-3.58-8-8-8s-8 3.581-8 8a8.003 8.003 0 006.75 7.904V11.86H4.718V9.548H6.75V7.786c0-2.005 1.194-3.112 3.022-3.112.875 0 1.79.156 1.79.156v1.967h-1.008c-.994 0-1.304.617-1.304 1.25v1.501h2.219l-.355 2.313H9.25v5.59A8.003 8.003 0 0016 9.549z" fill="#fff" fill-opacity=".75"/></svg><svg fill="none" viewBox="0 0 16 17" id="footer-facebook" xmlns="http://www.w3.org/2000/svg"><path d="M16 8.548c0-4.419-3.58-8-8-8s-8 3.581-8 8a8.003 8.003 0 006.75 7.904V10.86H4.718V8.548H6.75V6.786c0-2.005 1.194-3.112 3.022-3.112.875 0 1.79.156 1.79.156v1.967h-1.008c-.994 0-1.304.617-1.304 1.25v1.501h2.219l-.355 2.313H9.25v5.59A8.003 8.003 0 0016 8.549z"/></svg><svg viewBox="0 0 18 17" id="footer-instagram" xmlns="http://www.w3.org/2000/svg"><path d="M9.002 4.43c-2.272 0-4.104 1.817-4.104 4.07 0 2.252 1.832 4.07 4.104 4.07 2.271 0 4.103-1.818 4.103-4.07 0-2.253-1.832-4.07-4.103-4.07zm0 6.716c-1.468 0-2.668-1.187-2.668-2.646 0-1.46 1.196-2.646 2.668-2.646 1.471 0 2.668 1.187 2.668 2.646 0 1.46-1.2 2.646-2.668 2.646zm5.228-6.882c0 .528-.428.95-.957.95a.951.951 0 01-.957-.95c0-.524.429-.95.957-.95a.954.954 0 01.957.95zm2.718.963c-.06-1.271-.353-2.397-1.293-3.325C14.72.974 13.584.683 12.302.62 10.98.545 7.02.545 5.698.62 4.42.68 3.284.97 2.345 1.898c-.94.928-1.229 2.054-1.293 3.326-.075 1.31-.075 5.238 0 6.549.06 1.27.353 2.397 1.293 3.325.939.928 2.071 1.218 3.353 1.282 1.322.075 5.282.075 6.604 0 1.282-.06 2.418-.35 3.353-1.282.936-.928 1.229-2.054 1.293-3.325.075-1.311.075-5.235 0-6.546zm-1.707 7.951a2.69 2.69 0 01-1.521 1.51c-1.054.414-3.554.318-4.718.318-1.164 0-3.668.092-4.718-.319a2.69 2.69 0 01-1.521-1.508C2.345 12.133 2.44 9.654 2.44 8.5c0-1.155-.093-3.637.322-4.679a2.69 2.69 0 011.52-1.508c1.055-.415 3.555-.32 4.719-.32 1.164 0 3.668-.091 4.718.32.7.276 1.239.81 1.521 1.508.418 1.045.322 3.524.322 4.679 0 1.155.096 3.637-.322 4.678z"/></svg><svg viewBox="0 0 20 11" id="footer-vk" xmlns="http://www.w3.org/2000/svg"><path d="M19.067.746c.13-.43 0-.746-.628-.746h-2.077c-.53 0-.773.272-.903.574 0 0-1.059 2.513-2.554 4.142-.483.471-.705.622-.97.622-.13 0-.332-.15-.332-.58V.746c0-.516-.148-.746-.585-.746H7.752c-.332 0-.53.24-.53.464 0 .488.749.602.826 1.977v2.983c0 .653-.12.774-.384.774-.706 0-2.42-2.523-3.436-5.41C4.024.226 3.823 0 3.29 0H1.212C.62 0 .5.272.5.574c0 .536.705 3.2 3.284 6.72C5.502 9.697 7.92 11 10.122 11c1.323 0 1.485-.289 1.485-.787 0-2.296-.12-2.513.543-2.513.307 0 .836.151 2.07 1.31 1.412 1.375 1.644 1.99 2.434 1.99h2.078c.593 0 .892-.289.72-.86-.396-1.2-3.066-3.667-3.186-3.832-.306-.385-.218-.557 0-.9.004-.004 2.54-3.483 2.801-4.662z"/></svg><svg fill="none" viewBox="0 0 10 10" id="frame-left" xmlns="http://www.w3.org/2000/svg"><path stroke="#fff" d="M.5 0v10M10 .5H0"/></svg><svg fill="none" viewBox="0 0 10 10" id="frame-right" xmlns="http://www.w3.org/2000/svg"><path stroke="#fff" d="M9.5 10V0M0 9.5h10"/></svg><svg fill="none" viewBox="0 0 16 17" id="instagram" xmlns="http://www.w3.org/2000/svg"><path d="M8.004 4.427c-2.272 0-4.104 1.817-4.104 4.07 0 2.252 1.832 4.069 4.104 4.069 2.271 0 4.103-1.817 4.103-4.07 0-2.252-1.832-4.069-4.103-4.069zm0 6.715c-1.468 0-2.668-1.186-2.668-2.646 0-1.459 1.196-2.645 2.668-2.645 1.471 0 2.667 1.186 2.667 2.645 0 1.46-1.2 2.646-2.667 2.646zm5.228-6.881a.95.95 0 01-.957.949.951.951 0 01-.957-.95c0-.524.428-.949.957-.949.529 0 .957.425.957.95zm2.718.963c-.06-1.272-.354-2.398-1.293-3.326C13.721.97 12.586.68 11.304.616 9.982.542 6.02.542 4.7.616c-1.279.06-2.414.35-3.354 1.279C.407 2.823.118 3.949.054 5.22c-.075 1.31-.075 5.239 0 6.549.06 1.271.353 2.398 1.292 3.326.94.928 2.072 1.218 3.354 1.282 1.321.074 5.282.074 6.604 0 1.282-.06 2.417-.351 3.353-1.282.936-.928 1.229-2.055 1.293-3.326.075-1.31.075-5.235 0-6.545zm-1.707 7.951a2.69 2.69 0 01-1.522 1.509c-1.053.414-3.553.319-4.717.319-1.165 0-3.668.092-4.718-.32a2.69 2.69 0 01-1.522-1.508c-.418-1.045-.321-3.524-.321-4.679 0-1.154-.093-3.637.321-4.678a2.69 2.69 0 011.522-1.509c1.053-.414 3.553-.319 4.718-.319 1.164 0 3.667-.092 4.717.32.7.275 1.24.81 1.522 1.508.418 1.045.321 3.524.321 4.678 0 1.155.097 3.638-.321 4.679z" fill="#fff" fill-opacity=".75"/></svg><svg fill="none" viewBox="0 0 122 30" id="logo" xmlns="http://www.w3.org/2000/svg"><path fill-rule="evenodd" clip-rule="evenodd" d="M10 0H0v10a5 5 0 005 5h10V5a5 5 0 00-5-5zm0 2H2v8a3 3 0 003 3h8V5a3 3 0 00-3-3z" fill="#F88500"/><path d="M27.423 1.964h2.159l1.36 3.995 1.36-3.995h2.176l-2.057 5.491 1.53 3.859 3.417-9.384h2.55L35.005 14h-1.972l-2.091-5.066L28.851 14h-1.972L22 1.93h2.516l3.434 9.384 1.496-3.859-2.023-5.491zm18.434 12.121c-.884 0-1.688-.17-2.414-.51a6.227 6.227 0 01-1.853-1.377 6.458 6.458 0 01-1.19-1.972 6.25 6.25 0 01.017-4.573 6.6 6.6 0 011.241-1.955 5.909 5.909 0 011.887-1.343 5.498 5.498 0 012.363-.51c.873 0 1.666.181 2.38.544a5.827 5.827 0 011.853 1.394c.51.578.907 1.235 1.19 1.972a6.204 6.204 0 01-.017 4.556 6.387 6.387 0 01-1.224 1.938 6.065 6.065 0 01-1.87 1.343 5.657 5.657 0 01-2.363.493zm-3.502-6.12c0 .521.08 1.026.238 1.513.159.487.386.918.68 1.292a3.56 3.56 0 001.105.901c.442.227.94.34 1.496.34.567 0 1.066-.113 1.496-.34a3.41 3.41 0 001.105-.935c.306-.385.533-.816.68-1.292a4.75 4.75 0 00.238-1.479c0-.521-.085-1.026-.255-1.513a3.948 3.948 0 00-.697-1.292 3.13 3.13 0 00-1.105-.884 3.09 3.09 0 00-1.462-.34c-.566 0-1.07.119-1.513.357-.442.227-.81.533-1.105.918a4.137 4.137 0 00-.68 1.292 4.918 4.918 0 00-.22 1.462zm16.352 6.12c-.884 0-1.689-.17-2.414-.51a6.226 6.226 0 01-1.853-1.377 6.456 6.456 0 01-1.19-1.972 6.248 6.248 0 01.017-4.573 6.599 6.599 0 011.24-1.955 5.906 5.906 0 011.888-1.343 5.497 5.497 0 012.363-.51c.872 0 1.666.181 2.38.544a5.828 5.828 0 011.853 1.394c.51.578.907 1.235 1.19 1.972a6.206 6.206 0 01-.017 4.556 6.39 6.39 0 01-1.224 1.938 6.068 6.068 0 01-1.87 1.343 5.657 5.657 0 01-2.363.493zm-3.502-6.12c0 .521.08 1.026.238 1.513.159.487.385.918.68 1.292.306.374.674.674 1.105.901.442.227.94.34 1.496.34.567 0 1.065-.113 1.496-.34a3.41 3.41 0 001.105-.935c.306-.385.532-.816.68-1.292.158-.487.238-.98.238-1.479 0-.521-.085-1.026-.255-1.513a3.95 3.95 0 00-.697-1.292 3.132 3.132 0 00-1.105-.884 3.091 3.091 0 00-1.462-.34c-.567 0-1.071.119-1.513.357-.442.227-.81.533-1.105.918a4.133 4.133 0 00-.68 1.292 4.915 4.915 0 00-.221 1.462zM66.405 14V1.93h4.386c.987 0 1.848.159 2.585.476.748.317 1.37.748 1.87 1.292a5.34 5.34 0 011.122 1.921c.249.725.374 1.502.374 2.329 0 .918-.142 1.751-.425 2.499a5.318 5.318 0 01-1.19 1.904 5.54 5.54 0 01-1.887 1.224c-.726.283-1.542.425-2.448.425h-4.386zm7.974-6.052c0-.578-.08-1.11-.239-1.598a3.574 3.574 0 00-.697-1.258 3.087 3.087 0 00-1.138-.816c-.443-.193-.947-.289-1.514-.289h-2.04v7.956h2.04c.579 0 1.088-.102 1.53-.306a3.097 3.097 0 001.123-.833c.305-.363.538-.788.697-1.275a5.08 5.08 0 00.237-1.581zm12.658-3.961h-3.859V14h-2.329V3.987H76.99V1.93h10.047v2.057zm9.88 7.956V14h-8.382V1.93h8.228v2.057h-5.882v2.907h5.083v1.904h-5.083v3.145h6.035zm.848-4.063a6.3 6.3 0 01.391-2.176 6.04 6.04 0 011.173-1.938 5.902 5.902 0 011.87-1.377c.737-.351 1.576-.527 2.516-.527 1.111 0 2.069.244 2.873.731.816.487 1.423 1.122 1.819 1.904l-1.802 1.241a2.934 2.934 0 00-.578-.85 2.786 2.786 0 00-.731-.561 3.033 3.033 0 00-.816-.289 3.56 3.56 0 00-.833-.102c-.589 0-1.105.119-1.547.357-.43.238-.793.55-1.088.935a4.088 4.088 0 00-.646 1.292 4.762 4.762 0 00.034 2.975c.17.487.408.918.714 1.292a3.77 3.77 0 001.122.901c.442.227.924.34 1.445.34.272 0 .556-.034.85-.102.295-.068.573-.176.833-.323.272-.147.522-.334.748-.561.227-.238.408-.521.544-.85l1.921 1.105c-.192.453-.47.856-.833 1.207-.351.34-.753.629-1.207.867-.442.238-.918.42-1.428.544a6.282 6.282 0 01-1.496.187 5.142 5.142 0 01-2.363-.544 6.33 6.33 0 01-1.853-1.411 6.972 6.972 0 01-1.207-1.989 6.383 6.383 0 01-.425-2.278zM120.3 1.93V14h-2.329V8.849h-5.474V14h-2.346V1.93h2.346v4.879h5.474V1.93h2.329z" fill="#fff"/><path d="M25.708 20.48h.708l3.54 8.52h-.888l-1.104-2.664h-3.828L23.044 29h-.9l3.564-8.52zm2.064 5.196l-1.716-4.212-1.74 4.212h3.456zm9.237-2.208c-.552.016-1.032.168-1.44.456a2.3 2.3 0 00-.864 1.188V29h-.816v-6.252h.768v1.5c.232-.48.544-.856.936-1.128a2.17 2.17 0 011.26-.408c.064 0 .116.004.156.012v.744zm3.219 2.388c0-.44.076-.856.228-1.248a3.1 3.1 0 01.636-1.02c.28-.296.612-.528.996-.696a3.14 3.14 0 011.272-.252c.592 0 1.108.136 1.548.408.44.264.772.624.996 1.08l-.792.252a1.85 1.85 0 00-.744-.744 2.017 2.017 0 00-1.044-.276c-.32 0-.62.064-.9.192a2.327 2.327 0 00-.72.528c-.2.216-.36.476-.48.78a2.86 2.86 0 00-.168.996c0 .352.06.684.18.996.12.312.284.584.492.816.208.224.448.404.72.54a2.111 2.111 0 001.476.108c.2-.056.384-.132.552-.228a2.11 2.11 0 00.432-.348c.12-.128.204-.264.252-.408l.804.24a2.123 2.123 0 01-.384.624 2.818 2.818 0 01-.6.492c-.224.136-.476.24-.756.312-.272.08-.556.12-.852.12a3.11 3.11 0 01-1.26-.252 3.179 3.179 0 01-.996-.708c-.28-.304-.5-.652-.66-1.044a3.455 3.455 0 01-.228-1.26zM55.382 29h-.816v-3.492c0-.712-.124-1.244-.372-1.596-.24-.352-.596-.528-1.068-.528-.232 0-.464.048-.696.144a2.45 2.45 0 00-.636.372c-.2.16-.376.348-.528.564a2.476 2.476 0 00-.324.708V29h-.816v-8.76h.816v3.924a2.835 2.835 0 011.032-1.116c.44-.272.916-.408 1.428-.408.36 0 .664.068.912.204.248.128.452.312.612.552.16.232.276.516.348.852.072.328.108.692.108 1.092V29zm4.62 0v-6.252h.816V29h-.816zm0-7.56v-1.2h.816v1.2h-.816zm8.493 7.26c-.048.024-.12.056-.216.096a3.722 3.722 0 01-.72.228 2.325 2.325 0 01-.48.048c-.176 0-.344-.024-.504-.072a1.23 1.23 0 01-.42-.216 1.155 1.155 0 01-.396-.912v-4.476h-.864v-.648h.864v-2.112h.816v2.112h1.44v.648h-1.44v4.248c.016.232.096.404.24.516a.892.892 0 00.516.156c.232 0 .436-.036.612-.108.176-.08.288-.136.336-.168l.216.66zm6.447.42a3.11 3.11 0 01-1.26-.252 3.22 3.22 0 01-.984-.708c-.28-.304-.5-.652-.66-1.044a3.455 3.455 0 01-.227-1.26c0-.44.075-.852.227-1.236.16-.392.377-.732.648-1.02.28-.296.612-.528.996-.696a2.96 2.96 0 011.248-.264c.456 0 .872.088 1.248.264.385.168.713.4.984.696a3.295 3.295 0 01.864 2.244v.192a.483.483 0 01-.011.132h-5.353c.024.336.1.648.228.936.136.28.308.524.516.732.209.208.444.372.709.492a2.247 2.247 0 001.464.084c.2-.056.384-.132.552-.228.168-.096.32-.212.456-.348.135-.144.24-.3.311-.468l.709.192a2.157 2.157 0 01-.409.636c-.175.184-.38.348-.611.492-.233.136-.489.24-.769.312-.28.08-.572.12-.876.12zm2.305-3.576a2.4 2.4 0 00-.24-.912 2.331 2.331 0 00-.505-.72 2.14 2.14 0 00-.707-.468 2.159 2.159 0 00-.853-.168 2.282 2.282 0 00-1.584.636c-.2.2-.363.44-.491.72-.12.28-.193.584-.217.912h4.596zm4.487.312c0-.44.076-.856.228-1.248a3.1 3.1 0 01.635-1.02c.28-.296.613-.528.997-.696a3.14 3.14 0 011.272-.252c.591 0 1.108.136 1.547.408.44.264.773.624.996 1.08l-.791.252a1.85 1.85 0 00-.744-.744 2.017 2.017 0 00-1.044-.276c-.32 0-.62.064-.9.192a2.327 2.327 0 00-.72.528c-.2.216-.36.476-.48.78a2.86 2.86 0 00-.169.996c0 .352.06.684.18.996.12.312.284.584.493.816.208.224.448.404.72.54a2.111 2.111 0 001.476.108c.2-.056.383-.132.551-.228a2.11 2.11 0 00.433-.348c.12-.128.204-.264.251-.408l.804.24a2.123 2.123 0 01-.383.624 2.818 2.818 0 01-.6.492c-.225.136-.477.24-.757.312-.272.08-.555.12-.852.12a3.11 3.11 0 01-1.26-.252 3.179 3.179 0 01-.996-.708c-.28-.304-.5-.652-.66-1.044a3.455 3.455 0 01-.227-1.26zM94.63 28.7c-.048.024-.12.056-.216.096a3.722 3.722 0 01-.72.228 2.325 2.325 0 01-.48.048c-.176 0-.344-.024-.504-.072a1.23 1.23 0 01-.42-.216 1.155 1.155 0 01-.396-.912v-4.476h-.864v-.648h.864v-2.112h.816v2.112h1.44v.648h-1.44v4.248c.016.232.096.404.24.516a.892.892 0 00.516.156c.232 0 .436-.036.612-.108.176-.08.288-.136.336-.168l.216.66zm5.856.42c-.68 0-1.188-.224-1.524-.672-.328-.456-.492-1.132-.492-2.028v-3.672h.816v3.528c0 1.416.484 2.124 1.452 2.124a2.158 2.158 0 001.344-.468c.2-.152.376-.332.528-.54.16-.208.288-.444.384-.708v-3.936h.816v5.196c0 .224.096.336.288.336V29a1.509 1.509 0 01-.24.024h-.12a.652.652 0 01-.468-.204c-.12-.128-.18-.3-.18-.516v-.72a2.961 2.961 0 01-2.604 1.536zm11.169-5.652c-.552.016-1.032.168-1.44.456a2.3 2.3 0 00-.864 1.188V29h-.816v-6.252h.768v1.5c.232-.48.544-.856.936-1.128a2.17 2.17 0 011.26-.408c.064 0 .116.004.156.012v.744zm6.351 5.652a3.11 3.11 0 01-1.26-.252 3.22 3.22 0 01-.984-.708c-.28-.304-.5-.652-.66-1.044a3.455 3.455 0 01-.228-1.26c0-.44.076-.852.228-1.236.16-.392.376-.732.648-1.02.28-.296.612-.528.996-.696a2.96 2.96 0 011.248-.264c.456 0 .872.088 1.248.264.384.168.712.4.984.696a3.295 3.295 0 01.864 2.244v.192a.483.483 0 01-.012.132h-5.352c.024.336.1.648.228.936.136.28.308.524.516.732.208.208.444.372.708.492a2.247 2.247 0 001.464.084c.2-.056.384-.132.552-.228.168-.096.32-.212.456-.348.136-.144.24-.3.312-.468l.708.192a2.157 2.157 0 01-.408.636c-.176.184-.38.348-.612.492-.232.136-.488.24-.768.312-.28.08-.572.12-.876.12zm2.304-3.576a2.4 2.4 0 00-.24-.912 2.331 2.331 0 00-.504-.72c-.2-.2-.436-.356-.708-.468a2.159 2.159 0 00-.852-.168 2.282 2.282 0 00-1.584.636c-.2.2-.364.44-.492.72-.12.28-.192.584-.216.912h4.596z" fill="#fff" fill-opacity=".45"/></svg><svg fill="none" viewBox="0 0 12 16" id="mapmarker" xmlns="http://www.w3.org/2000/svg"><g clip-path="url(#axclip0_299_1018)"><path d="M6 2.133c-2.123 0-3.85 1.714-3.85 3.821 0 .179.086 1.2 1.79 3.773a44.506 44.506 0 002.114 2.89 42.64 42.64 0 001.452-1.972C9.784 7.346 9.85 6.087 9.85 5.954c0-2.107-1.727-3.82-3.85-3.82zM6 0c3.313 0 6 2.666 6 5.954C12 9.206 6.1 16 6 16v-.002c.031-.155-6-6.756-6-10.044C0 2.666 2.686 0 6 0z" fill="#F88500"/></g><defs><clipPath id="axclip0_299_1018"><path fill="#fff" d="M0 0h12v16H0z"/></clipPath></defs></svg><svg fill="none" viewBox="0 0 42 42" id="mat" xmlns="http://www.w3.org/2000/svg"><g clip-path="url(#ayclip0_269_2075)"><path d="M20.005 41.53C18.364 40.527.621 28.819.321 28.543c-.377-.347-.427-1.15-.101-1.618.258-.37 1.049-.548 1.458-.329.161.087 4.546 2.953 9.742 6.37 5.197 3.415 9.508 6.21 9.58 6.21.072 0 4.383-2.795 9.58-6.21 5.197-3.417 9.58-6.283 9.742-6.37.409-.219 1.2-.04 1.458.33.326.466.276 1.27-.102 1.618-.298.276-18.036 11.98-19.683 12.988-.422.258-.87.469-.995.469s-.573-.211-.995-.47zm.259-6.67c-.767-.418-.91-1.341-.302-1.95.809-.81 2.447-.284 2.447.785 0 .563-.212.917-.702 1.17-.511.266-.947.264-1.443-.006zm-3.578-2.381c-.999-.443-1.334-1.366-.762-2.095.367-.468.856-.545 1.53-.243.998.448 1.304 1.344.693 2.03-.402.45-.901.556-1.46.308zm7.605.06c-.695-.282-.96-1.2-.525-1.822.296-.423 1.228-.842 1.68-.755.474.09.909.677.909 1.226 0 .527-.403 1.014-1.073 1.294-.53.222-.574.225-.99.056zm-11.675-2.71c-.64-.354-.916-.729-.916-1.24 0-1.394 1.573-1.697 2.524-.485.392.5.37.93-.07 1.456-.393.467-.993.572-1.538.27zm15.23-.269c-.44-.526-.462-.957-.07-1.456.657-.837 1.837-1.007 2.309-.332.326.467.275 1.27-.102 1.615-.824.753-1.597.815-2.136.173zm-7.463-1.282C19.267 27.628.318 15.096.18 14.916c-.294-.382-.218-1.218.14-1.55.175-.162 4.788-3.235 10.252-6.83C18.899 1.058 20.587 0 21 0c.413 0 2.099 1.056 10.427 6.535 5.464 3.595 10.077 6.669 10.252 6.83.358.333.434 1.169.14 1.551-.15.197-19.461 12.958-20.241 13.376-.354.19-.856.184-1.195-.014zM8.67 27.241c-.63-.33-.916-.745-.916-1.333 0-1.027 1.056-1.469 2.046-.856 1.474.914.403 2.99-1.13 2.19zm23.497.066c-.175-.07-.422-.348-.55-.617-.196-.413-.205-.555-.053-.921.383-.928 1.774-1.315 2.384-.664.62.662.336 1.672-.594 2.114-.546.26-.726.273-1.187.087zM4.416 24.474a1.64 1.64 0 01-.61-.777c-.137-.413-.12-.557.103-.94.359-.617.964-.783 1.654-.455.97.461 1.268 1.444.64 2.114-.413.44-1.153.465-1.787.058zm31.38-.058c-.627-.67-.329-1.653.641-2.114.69-.328 1.295-.162 1.654.454.224.385.24.528.103.944-.325.987-1.745 1.411-2.397.716zM.678 22.013c-.48-.27-.673-.623-.673-1.236 0-1.034 1.234-1.46 2.103-.727.815.687.48 1.97-.553 2.111a1.498 1.498 0 01-.877-.148zm39.39.071c-.4-.161-.608-.565-.608-1.178 0-.375.103-.577.434-.856.879-.742 2.103-.307 2.103.747 0 .608-.202.957-.702 1.216-.458.238-.77.256-1.227.071z" fill="#F88500"/></g><defs><clipPath id="ayclip0_269_2075"><path fill="#fff" d="M0 0h42v42H0z"/></clipPath></defs></svg><svg viewBox="0 0 16 19" id="page-fb" xmlns="http://www.w3.org/2000/svg"><path d="M16 9.548c0-4.419-3.58-8-8-8s-8 3.581-8 8a8.003 8.003 0 006.75 7.904V11.86H4.718V9.548H6.75V7.786c0-2.005 1.194-3.112 3.022-3.112.875 0 1.79.156 1.79.156v1.967h-1.008c-.994 0-1.304.617-1.304 1.25v1.501h2.219l-.355 2.313H9.25v5.59A8.003 8.003 0 0016 9.549z"/></svg><svg viewBox="0 0 16 19" id="page-instagram" xmlns="http://www.w3.org/2000/svg"><g clip-path="url(#baclip0_304_185)"><path d="M8.004 5.427c-2.272 0-4.104 1.817-4.104 4.07 0 2.252 1.832 4.069 4.104 4.069 2.271 0 4.103-1.817 4.103-4.07 0-2.252-1.832-4.069-4.103-4.069zm0 6.715c-1.468 0-2.668-1.186-2.668-2.646 0-1.459 1.196-2.645 2.668-2.645 1.471 0 2.667 1.186 2.667 2.645 0 1.46-1.2 2.646-2.667 2.646zm5.228-6.881a.95.95 0 01-.957.949.951.951 0 01-.957-.95c0-.524.428-.949.957-.949.529 0 .957.425.957.95zm2.718.963c-.06-1.272-.354-2.398-1.293-3.326-.936-.928-2.071-1.218-3.353-1.282-1.322-.074-5.283-.074-6.604 0-1.279.06-2.414.35-3.354 1.279C.407 3.823.118 4.949.054 6.22c-.075 1.31-.075 5.239 0 6.549.06 1.271.353 2.398 1.292 3.326.94.928 2.072 1.218 3.354 1.282 1.321.074 5.282.074 6.604 0 1.282-.06 2.417-.351 3.353-1.282.936-.928 1.229-2.055 1.293-3.326.075-1.31.075-5.235 0-6.545zm-1.707 7.951a2.69 2.69 0 01-1.522 1.509c-1.053.414-3.553.319-4.717.319-1.165 0-3.668.092-4.718-.32a2.69 2.69 0 01-1.522-1.508c-.418-1.045-.321-3.524-.321-4.679 0-1.154-.093-3.637.321-4.678a2.69 2.69 0 011.522-1.509c1.053-.414 3.553-.319 4.718-.319 1.164 0 3.667-.092 4.717.32.7.275 1.24.81 1.522 1.508.418 1.045.321 3.524.321 4.678 0 1.155.097 3.638-.321 4.679z"/></g><defs><clipPath id="baclip0_304_185"><path fill="#fff" transform="translate(0 .433)" d="M0 0h16v18.133H0z"/></clipPath></defs></svg><svg viewBox="0 0 16 19" id="page-tw" xmlns="http://www.w3.org/2000/svg"><path d="M14.355 6.672c.01.142.01.284.01.426 0 4.335-3.299 9.33-9.33 9.33A9.267 9.267 0 010 14.956c.264.03.518.04.792.04a6.567 6.567 0 004.071-1.4 3.285 3.285 0 01-3.066-2.274c.203.03.406.05.62.05.294 0 .588-.04.862-.111A3.28 3.28 0 01.65 8.042v-.04a3.3 3.3 0 001.483.416A3.277 3.277 0 01.67 5.688c0-.61.162-1.168.447-1.656a9.321 9.321 0 006.761 3.432 3.702 3.702 0 01-.081-.751 3.278 3.278 0 013.28-3.28 3.27 3.27 0 012.395 1.036 6.456 6.456 0 002.081-.792 3.27 3.27 0 01-1.441 1.807c.66-.07 1.3-.254 1.888-.508a7.048 7.048 0 01-1.645 1.696z"/></svg><svg viewBox="0 0 20 23" id="page-vk" xmlns="http://www.w3.org/2000/svg"><path d="M18.567 6.746c.13-.43 0-.746-.628-.746h-2.077c-.53 0-.773.272-.903.574 0 0-1.059 2.513-2.554 4.142-.483.471-.705.622-.97.622-.13 0-.332-.15-.332-.58V6.746c0-.516-.148-.746-.585-.746H7.252c-.332 0-.53.24-.53.464 0 .488.749.602.826 1.977v2.983c0 .654-.12.774-.384.774-.706 0-2.42-2.523-3.436-5.41C3.524 6.226 3.323 6 2.79 6H.712C.12 6 0 6.272 0 6.574c0 .536.705 3.2 3.284 6.72C5.002 15.697 7.42 17 9.622 17c1.323 0 1.485-.289 1.485-.787 0-2.296-.12-2.513.543-2.513.307 0 .836.151 2.07 1.31 1.412 1.375 1.644 1.99 2.434 1.99h2.078c.593 0 .892-.289.72-.86-.396-1.2-3.066-3.667-3.186-3.832-.306-.385-.218-.557 0-.9.004-.004 2.54-3.483 2.801-4.662z"/></svg><svg fill="none" viewBox="0 0 55 36" id="team" xmlns="http://www.w3.org/2000/svg"><path d="M11.763 34.912c.024-.19.084-.507.134-.705.05-.198.09-.456.09-.573 0-.117.03-.23.067-.253.036-.023.066-.182.066-.355s.022-.337.049-.364c.044-.044.159-.629.258-1.323.02-.145.059-.278.084-.296.026-.019.082-.27.126-.56l.114-.758c.02-.127.06-.29.091-.362.053-.125.176-.777.243-1.285a1.75 1.75 0 01.087-.362 2.04 2.04 0 00.097-.362c.139-.8.207-1.115.25-1.159.027-.027.05-.11.049-.186 0-.197.222-1.055.28-1.081.028-.012.05-.094.05-.182 0-.087.026-.159.059-.159.032 0 .077-.074.1-.164.022-.091.07-.165.106-.165.035 0 .064-.031.064-.069 0-.062.375-.505.577-.682.046-.04.198-.184.338-.32.14-.135.275-.247.299-.247.024 0 .123-.074.221-.164.098-.09.213-.165.255-.165.043 0 .088-.025.1-.056.025-.064.942-.634 1.34-.833.144-.073.277-.147.296-.165.036-.037.466-.245 1.35-.656.326-.151.644-.303.707-.336a.551.551 0 01.214-.062c.055 0 .1-.03.1-.066 0-.036.038-.065.084-.065.09 0 .625-.27 1.101-.554.163-.098.378-.212.478-.255.1-.042.181-.1.181-.128 0-.028.045-.051.1-.051.055 0 .218-.075.361-.165.144-.09.305-.165.358-.165.124 0 .234-.391.235-.83v-.337l1.186-.176v-.379c0-.519-.12-1.044-.236-1.044-.052 0-.094-.03-.094-.066a.066.066 0 00-.066-.066c-.103 0-.46-.34-.46-.44 0-.047-.023-.087-.05-.087-.085 0-.412-.814-.412-1.025 0-.084-.03-.171-.066-.194-.036-.022-.066-.214-.066-.426 0-.464-.042-.595-.194-.595-.189 0-.519-.193-.65-.382-.153-.218-.202-.417-.277-1.118-.032-.3-.08-.58-.107-.623-.05-.08-.135-.48-.2-.929-.02-.146-.005-.283.038-.326a.29.29 0 00.073-.178c0-.058.119-.221.264-.363.296-.29.298-.296.17-.583a7.834 7.834 0 01-.204-.537 9.557 9.557 0 00-.168-.46c-.177-.419-.203-.714-.169-1.944.04-1.389.09-2.037.171-2.14.028-.037.072-.206.096-.378.025-.17.073-.328.107-.35.034-.02.062-.11.062-.199 0-.088.027-.16.06-.16.032 0 .076-.074.1-.165.022-.09.18-.307.352-.48a1.5 1.5 0 011.094-.475c.137 0 .155-.03.155-.266 0-.188.045-.314.154-.43.19-.203.694-.49.86-.49.068 0 .124-.022.124-.05 0-.045.547-.185 1.251-.32.354-.07 2.158-.05 2.602.027.51.088 1.019.205 1.186.272l.38.16c.138.06.293.109.346.109.054 0 .097.026.097.058s.052.076.115.097c.212.071.813.51 1.146.836.31.304.701 1.006.824 1.479.019.072.058.191.088.263.142.345.231 1.62.231 3.294 0 .978-.015 1.925-.033 2.105-.032.315-.026.328.165.394.285.098.484.353.534.684.047.317-.01 1.05-.102 1.28a8.755 8.755 0 00-.171.543c-.062.217-.14.423-.17.458-.032.034-.058.128-.058.208 0 .08-.022.156-.05.168-.027.012-.108.14-.18.286-.14.28-.343.488-.478.492-.046 0-.083.035-.083.075 0 .044-.062.057-.155.034-.147-.037-.158-.018-.195.338-.077.732-.187 1.367-.247 1.429-.034.034-.061.13-.061.214 0 .083-.03.151-.066.151-.036 0-.066.037-.066.083 0 .112-.39.523-.599.63-.158.082-.166.108-.118.396.028.169.052.488.054.709l.004.4.478.084c.262.046.515.094.56.107.056.017.082.173.082.484 0 .566.078.748.387.905.131.067.254.137.272.156.092.096.403.262.492.262.055 0 .1.03.1.066 0 .036.03.066.065.066.055 0 .615.236.924.39.107.053 1.318.43 1.745.543.145.038.323.093.395.121.073.028.28.102.462.164.468.16 1.72.73 1.81.825.019.02.117.088.22.153.326.208.89.726 1.197 1.101.169.206.363.758.363 1.03 0 .115.026.226.058.246.033.02.074.148.092.284.043.314.163.801.241.972.033.073.075.22.093.33.066.398.181.859.243.97a.681.681 0 01.063.277c0 .09.027.23.06.314.035.083.111.388.171.678.06.29.136.578.17.641a.57.57 0 01.06.221c0 .141.197 1.012.266 1.18.03.072.068.235.084.362.043.337.185 1 .247 1.153.03.072.067.235.084.362.067.508.19 1.16.243 1.285.064.151.136.807.152 1.383l.01.395-30.93.033.044-.346zm31.578-3.947c0-.115-.027-.3-.06-.412a13.194 13.194 0 01-.248-1.19 1.836 1.836 0 00-.083-.33 6.97 6.97 0 01-.167-.658 7.917 7.917 0 00-.165-.659c-.046-.12-.266-.987-.394-1.548-.124-.549-.22-.897-.274-1.003a.703.703 0 01-.058-.267c0-.084-.029-.181-.064-.217-.035-.035-.084-.279-.108-.542-.025-.263-.07-.494-.101-.513-.03-.019-.056-.104-.056-.189 0-.33-.482-1.108-1.021-1.65-.29-.29-.596-.581-.68-.646-.295-.227-1.003-.638-1.1-.638-.053 0-.097-.022-.097-.05 0-.053-.481-.279-.594-.279-.036 0-.065-.028-.065-.061 0-.034-.067-.071-.148-.083a.187.187 0 01-.17-.169c-.011-.081.006-.148.038-.148s.127-.137.211-.305c.15-.298.663-.88.777-.88.032 0 .115-.054.185-.118.07-.065.224-.158.342-.206l.214-.088v-.635c0-.71-.023-.748-.502-.835a1.267 1.267 0 01-.321-.091 3.27 3.27 0 00-.462-.165 11.95 11.95 0 01-.546-.177.963.963 0 00-.28-.057c-.07 0-.129-.026-.129-.057 0-.032-.112-.076-.249-.098a2.446 2.446 0 01-.576-.206c-.18-.09-.364-.165-.41-.166-.045 0-.082-.03-.082-.066 0-.036.026-.066.059-.066.032 0 .077-.074.1-.164.023-.09.07-.165.106-.165.035 0 .064-.074.064-.165 0-.09.03-.164.066-.164.037 0 .066-.06.066-.13 0-.072.048-.252.107-.399.125-.312.085-.402-.086-.195-.403.486-1.14 1.138-1.14 1.008 0-.033.027-.089.06-.123.098-.102.598-1.1.598-1.194 0-.048.03-.087.066-.087.036 0 .066-.033.066-.073 0-.07.148-.438.268-.666.075-.142.195-.606.236-.908.017-.127.056-.29.086-.362.06-.142.19-1.06.274-1.91.028-.29.08-.705.114-.923.034-.217.097-.676.14-1.02.044-.345.104-.686.134-.758.03-.072.073-.265.094-.428.066-.522.2-1.173.251-1.224.027-.027.05-.12.05-.204a.7.7 0 01.06-.27 55.8 55.8 0 00.344-.69c.156-.317.307-.576.335-.576.028 0 .05-.034.05-.075 0-.102.672-.778.775-.78.045 0 .082-.025.082-.053 0-.028.082-.086.181-.13.1-.042.341-.167.536-.277.196-.11.396-.2.445-.2.05 0 .09-.027.09-.059s.081-.074.18-.094c.314-.061.769-.191.927-.265.212-.097 1.904-.088 2.004.012a.37.37 0 00.227.076c.164 0 .518.124 1.06.37.191.086.377.157.412.157.035 0 .064.027.064.059s.052.074.115.094c.355.112 1.334.915 1.334 1.094 0 .034.038.1.084.148.165.17.702 1.351.746 1.639.024.16.067.322.094.359.028.036.066.199.085.362.02.163.085.578.145.922.151.869.349 2.21.495 3.36.131 1.034.288 1.839.4 2.057a.608.608 0 01.06.23.87.87 0 00.098.305c.054.104.099.23.099.28 0 .05.03.091.066.091.036 0 .065.037.065.082 0 .045.079.245.175.444l.346.726c.094.2.2.383.235.408.035.025.045.064.023.087-.064.064-.722-.53-1.135-1.024l-.19-.229.046.264c.086.483.304 1.056.437 1.153a.48.48 0 01.092.181c.035.111.016.159-.073.188a6.268 6.268 0 00-.405.167 2.82 2.82 0 01-.48.166c-.106.022-.21.065-.229.097-.02.031-.108.057-.197.057a.704.704 0 00-.276.06c-.12.064-.982.34-1.44.461-.402.107-.426.162-.376.862.042.596.048.614.23.683.103.039.187.094.187.122 0 .028.032.051.07.051.079 0 .484.292.687.495.073.072.192.25.264.394.073.144.17.302.214.35.046.049.083.111.083.14 0 .121.403.458.636.53.257.08.507.184.973.406.143.067.299.123.346.123.048 0 .087.029.087.064 0 .036.074.084.164.106.09.023.165.064.165.09 0 .074.65.398.796.398.07 0 .126.023.126.051 0 .057.494.202.873.257.136.02.264.062.284.095.02.032.11.058.2.058.09 0 .363.049.606.108.477.117 1.09.51 1.165.747.024.074.07.134.104.134.034 0 .062.044.062.098 0 .055.022.1.049.1.065 0 .28.38.28.493 0 .048.035.1.077.114.08.027.153 1.11.227 3.41.021.67.065 1.247.098 1.281.032.035.059.665.059 1.4v1.337H43.341v-.21zM.131 30.09c0-.16-.03-.31-.066-.333-.082-.05-.089-1.629-.007-1.716.032-.034.077-.403.098-.82.043-.821.176-1.805.255-1.883.027-.027.05-.12.05-.207 0-.17.167-.768.268-.956a.543.543 0 00.06-.208c0-.052.044-.179.097-.281.052-.103.134-.283.18-.4.047-.118.102-.215.123-.215.021 0 .107-.136.19-.303.19-.382 1.005-1.212 1.354-1.38.145-.07.273-.15.285-.178.012-.027.05-.049.083-.049s.214-.074.402-.165c.188-.09.38-.164.428-.164.047 0 .086-.03.086-.065 0-.036.12-.085.265-.108.146-.023.281-.068.3-.1.02-.03.094-.057.165-.057a.66.66 0 00.243-.057 4.92 4.92 0 01.51-.177c.217-.066.424-.137.46-.16.037-.021.237-.095.445-.163.208-.067.379-.148.379-.178s.066-.056.148-.057a.552.552 0 00.276-.099.498.498 0 01.247-.097c.066 0 .12-.03.12-.066 0-.036.044-.066.099-.066a.543.543 0 00.214-.062c.063-.035.233-.115.378-.178a1.61 1.61 0 00.296-.153 1.93 1.93 0 01.33-.166 2.24 2.24 0 00.329-.163c.043-.046.723-.375.873-.422.063-.02.115-.097.115-.17 0-.074.027-.135.06-.135.032 0 .074-.126.094-.28.02-.154.083-.517.142-.806.195-.958.195-.93.007-1.132-.094-.101-.171-.222-.171-.268 0-.045-.027-.082-.059-.082s-.077-.075-.1-.165c-.023-.09-.07-.165-.106-.165-.036 0-.065-.044-.065-.099 0-.054-.03-.098-.065-.098-.037 0-.066-.048-.066-.106a.788.788 0 00-.093-.28c-.178-.333-.374-.81-.412-1.004-.022-.107-.065-.21-.097-.23-.031-.019-.057-.11-.057-.202a2.6 2.6 0 00-.104-.523c-.093-.323-.12-.356-.29-.356-.205 0-.506-.296-.557-.549a9.326 9.326 0 01-.187-1.833c-.016-.896-.013-.905.388-1.147.104-.063.107-.094.03-.278-.12-.292-.14-3.198-.021-3.317a.32.32 0 00.082-.195c0-.4.902-1.506 1.499-1.837.154-.086.28-.177.28-.203 0-.025.074-.065.164-.087.091-.023.165-.07.165-.106 0-.036.045-.065.099-.065.054 0 .099-.028.099-.061 0-.034.054-.08.12-.1a.856.856 0 00.249-.153 2.54 2.54 0 01.357-.243 2.25 2.25 0 00.36-.252c.073-.068.184-.152.248-.187.102-.055.115-.028.115.236 0 .164.015.299.034.299.018 0 .347-.314.73-.697.383-.383.715-.678.738-.656.022.023.048.232.057.466.01.234.055.492.101.573l.084.15.022-.182c.024-.208.145-.231.431-.082.104.054.23.098.28.098.05 0 .092.024.092.052 0 .028.148.109.33.179.18.07.328.144.328.164 0 .02.133.096.296.167.163.072.296.152.297.18 0 .027.03.049.068.049.083 0 .945.536.975.607.012.028.059.052.104.052.145 0 .878.768 1.006 1.054a.479.479 0 00.083.131c.08.07.268.701.268.902 0 .116.033.231.074.256.073.046.053 1.086-.048 2.53l-.04.56.237.126c.13.07.237.166.237.215 0 .048.027.088.059.088.106 0 .136.547.076 1.35-.033.435-.08.886-.105 1.003-.053.254-.325.545-.509.545-.162 0-.306.18-.309.385-.003.211-.221 1.026-.282 1.053-.027.012-.05.088-.05.169 0 .08-.043.204-.096.274a.49.49 0 00-.099.205c-.005.197-.683 1.229-1.17 1.783-.105.119-.124.214-.1.494.018.19.058.375.09.41.032.034.058.165.058.291 0 .126.05.44.109.696l.108.467.93.458c.51.252 1.027.515 1.148.585l.22.127-.253.094c-.14.05-.305.11-.368.13-.064.02-.115.062-.115.094s-.075.058-.165.058c-.09 0-.165.03-.165.066 0 .036-.037.066-.082.067-.045 0-.26.09-.478.196-.217.107-.432.195-.477.196-.046.001-.082.024-.082.052 0 .027-.097.09-.215.14-.117.05-.398.206-.624.346-.225.14-.429.254-.452.254-.047 0-.763.505-.995.701-.08.067-.228.189-.33.27a5.251 5.251 0 00-.876.874c-.162.199-.31.377-.328.395a1.035 1.035 0 00-.106.165l-.244.442c-.215.387-.507 1.223-.507 1.452 0 .094-.03.248-.065.342a4.446 4.446 0 00-.138.58c-.08.448-.132.699-.292 1.4-.059.253-.132.579-.164.724-.032.145-.105.47-.164.724-.059.254-.13.595-.16.758-.104.587.545.527-5.677.527H.13v-.293z" fill="#F88500"/></svg><svg fill="none" viewBox="0 0 25 3" id="title-decor" xmlns="http://www.w3.org/2000/svg"><path d="M0 0h22a3 3 0 013 3H3a3 3 0 01-3-3z" fill="#F88500"/></svg><svg fill="none" viewBox="0 0 16 14" id="twitter" xmlns="http://www.w3.org/2000/svg"><path d="M14.355 3.672c.01.142.01.284.01.426 0 4.335-3.299 9.33-9.33 9.33A9.267 9.267 0 010 11.956c.264.03.518.04.792.04a6.567 6.567 0 004.071-1.4 3.285 3.285 0 01-3.066-2.274c.203.03.406.05.62.05.294 0 .588-.04.862-.111A3.28 3.28 0 01.65 5.042v-.04a3.3 3.3 0 001.483.416A3.277 3.277 0 01.67 2.688c0-.61.162-1.168.447-1.656a9.321 9.321 0 006.761 3.432 3.702 3.702 0 01-.081-.751 3.278 3.278 0 013.28-3.28 3.27 3.27 0 012.395 1.036 6.456 6.456 0 002.081-.792 3.27 3.27 0 01-1.441 1.807c.66-.07 1.3-.254 1.888-.508a7.048 7.048 0 01-1.645 1.696z" fill="#fff" fill-opacity=".75"/></svg><svg viewBox="0 0 16 13" id="twitter-bottom" xmlns="http://www.w3.org/2000/svg"><path d="M14.355 3.241c.01.142.01.284.01.426 0 4.336-3.299 9.33-9.33 9.33A9.267 9.267 0 010 11.526c.264.03.518.041.792.041a6.568 6.568 0 004.071-1.401 3.285 3.285 0 01-3.066-2.274c.203.03.406.05.62.05.294 0 .588-.04.862-.111A3.28 3.28 0 01.65 4.612v-.04c.437.243.945.395 1.483.415A3.277 3.277 0 01.67 2.257c0-.61.162-1.168.447-1.656a9.321 9.321 0 006.761 3.432 3.702 3.702 0 01-.081-.751 3.278 3.278 0 013.28-3.28 3.27 3.27 0 012.395 1.036 6.456 6.456 0 002.081-.792 3.27 3.27 0 01-1.441 1.807c.66-.07 1.3-.254 1.888-.507a7.048 7.048 0 01-1.645 1.695z"/></svg><svg fill="none" viewBox="0 0 20 23" id="vk" xmlns="http://www.w3.org/2000/svg"><path d="M18.567 6.746c.13-.43 0-.746-.628-.746h-2.077c-.53 0-.773.272-.903.574 0 0-1.059 2.513-2.554 4.142-.483.471-.705.622-.97.622-.13 0-.332-.15-.332-.58V6.746c0-.516-.148-.746-.585-.746H7.252c-.332 0-.53.24-.53.464 0 .488.749.602.826 1.977v2.983c0 .654-.12.774-.384.774-.706 0-2.42-2.523-3.436-5.41C3.524 6.226 3.323 6 2.79 6H.712C.12 6 0 6.272 0 6.574c0 .536.705 3.2 3.284 6.72C5.002 15.697 7.42 17 9.622 17c1.323 0 1.485-.289 1.485-.787 0-2.296-.12-2.513.543-2.513.307 0 .836.151 2.07 1.31 1.412 1.375 1.644 1.99 2.434 1.99h2.078c.593 0 .892-.289.72-.86-.396-1.2-3.066-3.667-3.186-3.832-.306-.385-.218-.557 0-.9.004-.004 2.54-3.483 2.801-4.662z" fill="#fff" fill-opacity=".75"/></svg><svg fill="none" viewBox="0 0 40 40" id="wood-accent" xmlns="http://www.w3.org/2000/svg"><path d="M20 0c-3.876 0-7.636 1.11-10.874 3.211a.763.763 0 00.832 1.281A18.403 18.403 0 0120 1.527c10.186 0 18.473 8.287 18.473 18.473 0 10.186-8.287 18.473-18.473 18.473C9.814 38.473 1.527 30.186 1.527 20A18.516 18.516 0 017.579 6.326a.763.763 0 00-1.027-1.13A20.046 20.046 0 000 20c0 11.028 8.972 20 20 20s20-8.972 20-20S31.028 0 20 0z" fill="#F88500"/><path d="M33.587 10.928a.763.763 0 10-1.269.849A14.738 14.738 0 0134.81 20c0 8.166-6.643 14.81-14.81 14.81-8.165 0-14.808-6.644-14.808-14.81S11.834 5.19 20 5.19c3.895 0 7.574 1.501 10.357 4.225a.763.763 0 101.068-1.091A16.245 16.245 0 0020 3.664C10.992 3.664 3.664 10.992 3.664 20S10.992 36.336 20 36.336 36.336 29.008 36.336 20c0-3.247-.95-6.384-2.749-9.072z" fill="#F88500"/><path d="M20 8.346a11.56 11.56 0 00-6.927 2.282.763.763 0 10.908 1.227 10.045 10.045 0 016.02-1.982c5.583 0 10.126 4.543 10.126 10.127 0 4.658-3.15 8.698-7.663 9.826a.763.763 0 10.37 1.48A11.633 11.633 0 0031.654 20c0-6.426-5.228-11.654-11.654-11.654zm-6.407 19.498A10.096 10.096 0 019.873 20c0-2.111.643-4.134 1.86-5.85a.763.763 0 10-1.246-.883A11.577 11.577 0 008.346 20c0 3.511 1.56 6.8 4.281 9.026a.76.76 0 001.074-.108.763.763 0 00-.108-1.074z" fill="#F88500"/><path d="M26.616 19.237a.763.763 0 00-.763.763A5.859 5.859 0 0120 25.852 5.859 5.859 0 0114.148 20 5.859 5.859 0 0120 14.148a.763.763 0 100-1.527c-4.069 0-7.379 3.31-7.379 7.379 0 4.069 3.31 7.38 7.38 7.38 4.068 0 7.378-3.311 7.378-7.38a.763.763 0 00-.763-.763z" fill="#F88500"/><path d="M20 16.896A3.108 3.108 0 0016.895 20 3.108 3.108 0 0020 23.104 3.108 3.108 0 0023.104 20 3.108 3.108 0 0020 16.896zm0 4.682A1.58 1.58 0 0118.422 20c0-.87.708-1.578 1.578-1.578.87 0 1.577.708 1.577 1.578A1.58 1.58 0 0120 21.578z" fill="#F88500"/></svg><svg fill="none" viewBox="0 0 41 40" id="wood-cut" xmlns="http://www.w3.org/2000/svg"><g clip-path="url(#bjclip0_140_174)" fill="#F88500"><path d="M20.921 0c-3.862 0-7.607 1.11-10.833 3.211a.765.765 0 00-.224 1.056.76.76 0 001.052.225 18.283 18.283 0 0110.005-2.965c10.148 0 18.404 8.287 18.404 18.473 0 10.186-8.256 18.473-18.404 18.473S2.517 30.186 2.517 20a18.548 18.548 0 016.03-13.674.765.765 0 00.051-1.079.758.758 0 00-1.074-.051A20.08 20.08 0 00.996 20c0 11.028 8.938 20 19.925 20s19.925-8.972 19.925-20S31.908 0 20.92 0z"/><path d="M34.457 10.928a.758.758 0 00-1.055-.21.765.765 0 00-.209 1.059A14.778 14.778 0 0135.675 20c0 8.166-6.619 14.81-14.754 14.81S6.168 28.165 6.168 20 12.786 5.19 20.92 5.19c3.88 0 7.545 1.501 10.318 4.225.3.295.782.29 1.076-.012a.765.765 0 00-.012-1.08A16.152 16.152 0 0020.92 3.664C11.947 3.664 4.647 10.992 4.647 20s7.3 16.336 16.274 16.336S37.195 29.008 37.195 20c0-3.247-.947-6.384-2.738-9.072z"/><path d="M20.921 8.346c-2.506 0-4.893.79-6.901 2.282a.765.765 0 00-.16 1.067.76.76 0 001.065.16 9.982 9.982 0 015.996-1.982c5.563 0 10.09 4.543 10.09 10.127 0 4.658-3.14 8.698-7.635 9.826a.764.764 0 00.368 1.48C28.918 30.01 32.532 25.36 32.532 20c0-6.426-5.208-11.654-11.61-11.654zm-6.382 19.498A10.111 10.111 0 0110.832 20c0-2.111.64-4.135 1.853-5.85a.765.765 0 00-.18-1.065.759.759 0 00-1.061.181A11.607 11.607 0 009.311 20c0 3.511 1.555 6.8 4.265 9.026a.756.756 0 001.07-.108.765.765 0 00-.107-1.074z"/><path d="M27.512 19.237a.76.76 0 00-.76.763c0 3.227-2.616 5.852-5.831 5.852-3.215 0-5.83-2.625-5.83-5.852 0-3.227 2.615-5.852 5.83-5.852.42 0 .76-.342.76-.764a.762.762 0 00-.76-.763c-4.054 0-7.351 3.31-7.351 7.379 0 4.069 3.297 7.38 7.351 7.38s7.351-3.311 7.351-7.38a.762.762 0 00-.76-.763z"/><path d="M20.921 16.896A3.102 3.102 0 0017.828 20a3.102 3.102 0 003.093 3.104A3.102 3.102 0 0024.014 20a3.102 3.102 0 00-3.093-3.104zm0 4.682A1.576 1.576 0 0119.349 20c0-.87.705-1.578 1.572-1.578.867 0 1.572.708 1.572 1.578 0 .87-.705 1.578-1.572 1.578z"/></g><defs><clipPath id="bjclip0_140_174"><path fill="#fff" transform="translate(.996)" d="M0 0h39.85v40H0z"/></clipPath></defs></svg></svg>